<?xml version="1.0" standalone="no"?>
<!DOCTYPE svg PUBLIC "-//W3C//DTD SVG 1.1//EN" "http://www.w3.org/Graphics/SVG/1.1/DTD/svg11.dtd" >
<!--
2013-9-30: Created.
-->
<svg>
<metadata>
Created by iconfont
</metadata>
<defs>

<font id="merlinfont" horiz-adv-x="1024" >
  <font-face
    font-family="merlinfont"
    font-weight="500"
    font-stretch="normal"
    units-per-em="1024"
    ascent="896"
    descent="-128"
  />
    <missing-glyph />
    
    <glyph glyph-name="x" unicode="x" horiz-adv-x="1001"
d="M281 543q-27 -1 -53 -1h-83q-18 0 -36.5 -6t-32.5 -18.5t-23 -32t-9 -45.5v-76h912v41q0 16 -0.5 30t-0.5 18q0 13 -5 29t-17 29.5t-31.5 22.5t-49.5 9h-133v-97h-438v97zM955 310v-52q0 -23 0.5 -52t0.5 -58t-10.5 -47.5t-26 -30t-33 -16t-31.5 -4.5q-14 -1 -29.5 -0.5
t-29.5 0.5h-32l-45 128h-439l-44 -128h-29h-34q-20 0 -45 1q-25 0 -41 9.5t-25.5 23t-13.5 29.5t-4 30v167h911zM163 247q-12 0 -21 -8.5t-9 -21.5t9 -21.5t21 -8.5q13 0 22 8.5t9 21.5t-9 21.5t-22 8.5zM316 123q-8 -26 -14 -48q-5 -19 -10.5 -37t-7.5 -25t-3 -15t1 -14.5
t9.5 -10.5t21.5 -4h37h67h81h80h64h36q23 0 34 12t2 38q-5 13 -9.5 30.5t-9.5 34.5q-5 19 -11 39h-368zM336 498v228q0 11 2.5 23t10 21.5t20.5 15.5t34 6h188q31 0 51.5 -14.5t20.5 -52.5v-227h-327z" />
    

    
    <glyph glyph-name="qunzu" unicode="&#58883;" d="M430.626 183.368c-4.822-14.134-72.91-36.108-140.806-45.298-156.028-27.124-187.83-114.384-194.904-157.64 0 0-0.774-33.316-0.076-50.778 0 0-73.34 23.938-83.8 73.414-4.134 49.63 31.28 156.59 195.636 185.162 23.79 3.24 47.456 8.032 70.578 14.524 12.512 3.514 26.072 5.152 36.416 13.688 10.806 8.916 7.836 21.16 6.732 33.872-5.094 57.616-34.772 91.28-60.958 120.998-9.336 10.58-17.676 20.18-23.944 29.228-29.074 41.972-32.178 88.396-32.42 93.544-0.038 21.13 8.23 33.688 15.85 41.882-6.804 37.998-7.266 93.792-1.102 131.646 3.134 53.464 45.996 92.454 50.95 96.784 2.526 2.158 5.202 4.51 7.518 6.806-2.25 7.036-3.778 15.872-1.784 26.13 4.63 24.34 24.584 37.61 59.358 39.354 14.074 0.748 27.256 1.318 40.44 1.318 4.352 0 8.672-0.326 13.014-0.462-3.058-3.488-5.484-7.752-6.554-13.334-2.196-11.448 1.766-20.62 4.234-29.636-3.998-6.412-10.468-12.308-17.010-17.896-1.964-1.706-47.632-42.236-49.040-92.236-6.86-39.298-6.43-101.608 1.488-144.572 0.432-2.33 1.136-5.858 0.314-7.132-8.112-7.506-18.226-16.86-18.186-37.38 0.074-2.038 2.822-50.174 32.104-92.49 6.506-9.39 15.168-19.322 24.852-30.322 29.362-33.262 65.856-74.674 72.012-144.666 2.862-32.34 0.626-40.822 0.51-41.158l-1.422-3.35zM684.056-68.99h-22.806l-35.95-0.28h-485.926v23.402s-10.548 130.706 181.942 164.162c0 0 146.536 19.786 156.79 60.080 0 0 5.596 4.484 1.466 51.284-8.792 99.646-74 146.534-100.374 184.63-26.378 38.102-28.576 82.062-28.576 82.062 0 10.986 4.602 15.012 12.25 22.068 9.462 8.728 6.624 18.004 4.816 27.824-6.87 37.294-7.48 97.208-0.946 134.736 1.466 44.694 42.494 80.59 42.494 80.59 7.7 6.53 15.414 13.718 20.818 22.334 1.506 2.402 2.898 4.974 3.718 7.702 3.090 10.29-7.376 17.842-5.272 28.786 1.89 9.868 18.808 10.352 29.034 10.89 23.030 1.212 46.182 2.12 69.178 0.356 172.11-13.192 228.702-76.552 228.702-76.552 13.394-16.044 22.22-35.666 27.536-55.776 1.588-6.012 2.954-12.15 3.694-18.332 5.364-30.824 5.344-62.968 3.676-94.118-0.792-14.852-2.52-29.472-4.704-44.168-1.14-7.692-0.554-14.85 4.582-20.992 4.3-5.142 9.214-8.734 11.322-15.49 0.988-3.16 1.24-6.572 1.24-9.862 0 0-2.194-43.958-28.57-82.064-26.376-38.096-91.586-84.984-100.376-184.628-4.13-46.802 1.464-51.284 1.464-51.284 10.26-40.298 156.792-60.080 156.792-60.080 194.646-36.1 181.94-164.164 181.94-164.164v-23.398h-128.146l20.188 0.276-221.992 0.006z"  horiz-adv-x="1024" />

    
    <glyph glyph-name="xing" unicode="&#58885;" d="M782.4850625-45.97246874999996c-3.8805 0-7.73896875 1.1795625-11.04628125 3.54984375L502.76740625 148.78143750000004 239.001875-40.989562500000034c-6.70275-4.817625-15.7205625-4.7955-22.3681875 0.08821875-6.65859375 4.83965625-9.44775 13.42753125-6.901125 21.2656875l99.151875 306.5285625L42.55015625 476.5205625c-6.757875 4.8065625-9.63515625 13.42753125-7.09959375 21.3429375 2.52459375 7.893375 9.8776875 13.25109375 18.1569375 13.25109375h327.73915216l100.86065625 311.73196875c2.52459375 7.8271875 9.80053125 13.15190625 18.0466875 13.19596875 0.02203125 0 0.0661875 0 0.08821875 0 8.19103125 0 15.47803125-5.2365 18.09075-13.019625l104.25609375-311.90840625h324.37676388c8.30128125 0 15.6103125-5.3356875 18.16790625-13.218 2.52459375-7.87125-0.29765625-16.50328125-7.0224375-21.331875L697.00325 288.6898125l103.583625-309.538125c2.5906875-7.83825-0.0991875-16.43709375-6.73584375-21.35390625C790.4886875-44.70468749999998 786.50890625-45.97246874999996 782.4850625-45.97246874999996zM502.7013125 191.29087500000003c3.86953125 0 7.75003125-1.15753125 11.05725-3.52771875l232.09303125-165.16490625-89.46159375 267.315375c-2.62378125 7.91540625 0.18740625 16.65759375 6.95625 21.51928125l224.5965 161.56003125H608.9858302c-8.22403125 0-15.489 5.2365-18.1018125 13.019625L500.63975 755.96259375l-87.2788125-269.78484375c-2.546625-7.87125-9.86671875-13.19596875-18.1348125-13.19596875H113.24853011l229.1385-163.1475c6.77990625-4.82859375 9.64621875-13.493625 7.0775625-21.387l-85.57003125-264.570375 227.6833125 163.81996875C494.89615625 190.10024999999996 498.78771875 191.29087500000003 502.7013125 191.29087500000003z"  horiz-adv-x="1000" />

    
    <glyph glyph-name="fenxiang" unicode="&#58882;" d="M805.501 524.244c84.927 0 153.994 69.093 153.994 153.992 0 84.898-69.068 153.992-153.994 153.992s-153.992-69.094-153.992-153.992c0-7.518 0.711-14.847 1.778-22.093l-323.79-124.517c-28.108 29.859-67.837 48.615-111.966 48.615-84.927 0-153.992-69.095-153.992-153.993s69.066-153.992 153.992-153.992c33.083 0 63.707 10.609 88.835 28.436l219.366-146.226c-9.050-19.578-14.217-41.26-14.217-64.2 0-84.899 69.067-153.992 153.992-153.992 84.899 0 153.993 69.093 153.993 153.992 0 84.897-69.094 153.992-153.993 153.992-41.835 0-79.759-16.814-107.537-43.993l-211.958 141.305c16.079 24.334 25.511 53.4 25.511 84.679 0 20.233-4.019 39.51-11.156 57.228l310.882 119.568c26.387-46.947 76.642-78.801 134.253-78.801zM217.53 328.253c-54.028 0-97.996 43.967-97.996 97.995 0 54.029 43.968 97.996 97.996 97.996s97.995-43.966 97.995-97.996c-0-54.027-43.966-97.995-97.995-97.995zM665.508 188.26c54.029 0 97.995-43.965 97.995-97.995 0-54.029-43.966-97.995-97.995-97.995s-97.995 43.966-97.995 97.995c-0.001 54.030 43.965 97.995 97.995 97.995zM805.501 776.231c54.029 0 97.996-43.966 97.996-97.995 0-54.029-43.967-97.995-97.996-97.995-54.030 0-97.995 43.965-97.995 97.995-0.001 54.028 43.964 97.995 97.995 97.995z"  horiz-adv-x="1024" />

    
    <glyph glyph-name="bofang" unicode="&#58971;" d="M512 864c-265.080 0-480-214.92-480-480s214.92-480 480-480 480 214.92 480 480-214.92 480-480 480zM512-36c-231.96 0-420 188.040-420 420s188.040 420 420 420 420-188.040 420-420-188.040-420-420-420zM392 624l360-240-360-240z"  horiz-adv-x="1024" />

    
    <glyph glyph-name="erweima" unicode="&#58956;" d="M459.139 434.898h-415.571v415.569h415.571v-415.569zM389.454 780.784h-276.201v-276.201h276.201v276.201zM309.635 700.965h-116.562v-116.562h116.562v116.562zM978.599 434.896h-415.569v415.571h415.571v-415.571zM908.916 780.784h-276.201v-276.203h276.201v276.203zM829.097 700.965h-116.564v-116.564h116.564v116.564zM459.139-84.563h-415.571v415.571h415.571v-415.571zM389.454 261.321h-276.201v-276.201h276.201v276.201zM309.635 181.503h-116.562v-116.564h116.562v116.564zM563.030-84.563h88.689v322.659h63.347v-161.328h263.532v254.24h-81.086v-168.928h-96.289v168.928h-238.194zM715.068-5.164h79.401v-79.401h-79.401zM899.199-5.164h79.401v-79.401h-79.401z"  horiz-adv-x="1024" />

    
    <glyph glyph-name="queding" unicode="&#58998;" d="M1013.62632 660.021633c-13.82748 13.82589-36.223454 13.82589-50.048887 0L353.22805 15.637534l-292.616164 292.634874c-13.895021 13.860682-36.361606 13.860682-50.187039 0-13.895021-13.859659-13.895021-36.325323 0-50.184983l318.063761-318.085522c13.049735-13.015432 33.65792-13.805424 47.568291-2.375094 1.395847 1.034563 2.73541 2.183735 4.002315 3.447519l633.569152 668.900469C1027.452777 623.799664 1027.452777 646.196767 1013.62632 660.021633z"  horiz-adv-x="1024" />

    
    <glyph glyph-name="jia" unicode="&#58918;" d="M950.36431677 344.01689093000005H60.41068027c-22.45247179 0-40.66921435 18.21674256-40.66921435 40.66144712 0 22.4498827 18.21674256 40.66921435 40.66921435 40.66921434h889.95104741c22.48612978 0 40.66662526-18.21933164 40.66662528-40.66921434 0.00258907-22.44470455-18.18049549-40.66144711-40.66403619-40.66144712z m0 0M545.9738624 828.37356341V-61.58007309000004c0-22.45247179-18.21674256-40.66921435-40.66144711-40.66921434-22.4498827 0-40.66662526 18.21674256-40.66662526 40.66921434V828.37356341c0 22.48612978 18.21674256 40.66662526 40.66662526 40.66662527 22.44470455 0 40.66144711-18.18308457 40.66144711-40.66662527z m0 0"  horiz-adv-x="1024" />

    
    <glyph glyph-name="saoyisao" unicode="&#58943;" d="M928.388584 269.046011 94.531783 269.046011c-17.705969 0-32.073777 14.366196-32.073777 32.066323 0 17.705244 14.367808 32.072463 32.073777 32.072463l833.855778 0c17.7336 0 32.073777-14.368242 32.073777-32.072463C960.461338 283.412207 946.122184 269.046011 928.388584 269.046011L928.388584 269.046011zM832.17237-115.802054 639.746082-115.802054c-17.7336 0-32.072754 14.33959-32.072754 32.073486 0 17.732873 14.339154 32.072463 32.072754 32.072463l192.426288 0c17.705969 0 32.073777 14.366196 32.073777 32.066323L864.246147 140.761276c0 17.733896 14.334037 32.073486 32.0748 32.073486 17.7336 0 32.067637-14.33959 32.067637-32.073486l0-160.351058C928.388584-72.631836 885.22069-115.802054 832.17237-115.802054L832.17237-115.802054zM351.099486-115.802054l-160.358652 0c-53.04218 0-96.209051 43.171242-96.209051 96.212272L94.531783 140.761276c0 17.733896 14.366784 32.073486 32.067637 32.073486 17.704946 0 32.073777-14.33959 32.073777-32.073486l0-160.351058c0-17.700127 14.397485-32.066323 32.067637-32.066323l160.358652 0c17.705969 0 32.073777-14.33959 32.073777-32.072463C383.173263-101.462464 368.805455-115.802054 351.099486-115.802054L351.099486-115.802054zM126.600444 429.397069c-17.700853 0-32.067637 14.367219-32.067637 32.066323L94.532807 621.81445c0 53.045123 43.167894 96.211249 96.209051 96.211249l160.358652 0c17.705969 0 32.073777-14.367219 32.073777-32.072463 0-17.699104-14.367808-32.066323-32.073777-32.066323l-160.358652 0c-17.670152 0-32.067637-14.402011-32.067637-32.072463L158.674221 461.463392C158.674221 443.763265 144.305389 429.397069 126.600444 429.397069L126.600444 429.397069zM896.320948 429.397069c-17.740763 0-32.0748 14.367219-32.0748 32.066323L864.246147 621.81445c0 17.671475-14.367808 32.072463-32.073777 32.072463L639.746082 653.886913c-17.7336 0-32.072754 14.367219-32.072754 32.066323 0 17.705244 14.339154 32.072463 32.072754 32.072463l192.426288 0c53.04832 0 96.216214-43.166125 96.216214-96.211249L928.388584 461.463392C928.388584 443.763265 914.054547 429.397069 896.320948 429.397069L896.320948 429.397069zM896.320948 429.397069"  horiz-adv-x="1024" />

    
    <glyph glyph-name="weizhi" unicode="&#58963;" d="M815.733 495.905c0-90.444-303.734-511.403-303.734-511.403s-303.734 423.567-303.734 511.403c0 167.751 135.974 303.734 303.734 303.734 167.746 0 303.734-135.984 303.734-303.734zM144.321 495.905c0-104.573 341.92-591.49 341.92-591.49h51.518c0 0 341.919 490.758 341.919 591.49 0 203.065-164.606 367.679-367.679 367.679-203.071 0-367.678-164.614-367.678-367.679zM416.084 495.905c0 52.97 42.947 95.917 95.916 95.917 52.97 0 95.917-42.947 95.917-95.917s-42.947-95.923-95.917-95.923c-52.969 0-95.916 42.955-95.916 95.923zM352.14 495.905c0-88.29 71.563-159.868 159.859-159.868 88.283 0 159.86 71.578 159.86 159.868s-71.578 159.86-159.86 159.86c-88.298 0-159.859-71.57-159.859-159.86z"  horiz-adv-x="1024" />

    
    <glyph glyph-name="shanchu-circle-o" unicode="&#59042;" d="M512 834C263.88125 834 62 632.11875 62 384c0-248.175 201.825-450 450-450 248.00625 0 450 201.76875 450 450C962 632.11875 760.23125 834 512 834L512 834zM695.6 245.45624999999995c12.6-12.65625 12.54375-33.01875-0.05625-45.5625-6.3-6.1875-14.5125-9.39375-22.66875-9.39375-8.26875 0-16.425 3.20625-22.725 9.39375L511.8875 338.71875l-138.7125-137.30625C366.875 195.33749999999998 358.71875 192.1875 350.5625 192.1875c-8.325 0-16.5375 3.20625-22.8375 9.5625-12.4875 12.65625-12.43125 32.9625 0.28125 45.50625l138.54375 136.96875L328.45625 522.6C316.025 535.25625 316.025 555.5625 328.5125 568.10625c12.6 12.65625 32.90625 12.54375 45.50625-0.05625l138.20625-138.6 138.7125 137.19375c12.6 12.54375 32.9625 12.375 45.45-0.225 12.6-12.65625 12.43125-32.9625-0.225-45.50625L557.50625 383.94375 695.6 245.45624999999995 695.6 245.45624999999995z"  horiz-adv-x="1024" />

    
    <glyph glyph-name="jia-circle-o" unicode="&#59162;" d="M512 872.4992C242.2272 872.4992 23.5008 653.78773333 23.5008 384c0-269.77706667 218.7264-488.50133333 488.4992-488.50133333S1000.4992 114.22506667000005 1000.4992 384c0 269.78773333-218.7264 488.4992-488.4992 488.4992z m0-931.20426667c-244.50986667 0-442.70506667 198.208-442.70506667 442.70506667 0 244.4928 198.1952 442.70293333 442.70506667 442.70293333S954.70506667 628.49493333 954.70506667 384 756.50986667-58.70506666999995 512-58.70506666999995z m0 0M781.434 357.90200000000004h-539.6c-13.614 0-24.658 11.89-24.658 26.54 0 14.652 11.044 26.542 24.658 26.542h539.602c13.632 0 24.658-11.89 24.658-26.542-0.002-14.65-11.026-26.54-24.66-26.54z m0 0M538.096 653.436v-539.604c0-13.614-11.89-24.656-26.54-24.656-14.652 0-26.542 11.042-26.542 24.656V653.436c0 13.632 11.89 24.658 26.542 24.658 14.65 0 26.54-11.026 26.54-24.658z m0 0"  horiz-adv-x="1024" />

    
    <glyph glyph-name="pinglun" unicode="&#58966;" d="M511.999488-35.882863c-28.734592 0-56.729303 2.604314-83.969807 7.099698L231.232673-148.185602 231.232673 50.59265C128.618486 122.644663 62.772174 233.110567 62.772174 357.174164c0 217.07906 201.129864 393.058051 449.228338 393.058051 248.084146 0 449.228338-175.980014 449.228338-393.058051C961.227826 140.082824 760.083635-35.882863 511.999488-35.882863zM511.999488 694.08238c-217.086932 0-393.074156-150.851707-393.074156-336.907193 0-114.166179 66.421434-214.898395 167.761552-275.820929l-1.768346-130.234133 132.171551 79.455633c30.4487-6.497994 62.117231-10.308787 94.910422-10.308787 217.101258 0 393.073132 150.825101 393.073132 336.907193C905.073644 543.230674 729.10177 694.08238 511.999488 694.08238zM736.614169 301.023306c-31.011542 0-56.154182 25.128307-56.154182 56.150858 0 31.010271 25.14264 56.151881 56.154182 56.151881s56.154182-25.14161 56.154182-56.151881C792.768351 326.151613 767.624687 301.023306 736.614169 301.023306zM511.999488 301.023306c-31.010518 0-56.153158 25.128307-56.153158 56.150858 0 31.010271 25.14264 56.151881 56.153158 56.151881 31.011542 0 56.154182-25.14161 56.154182-56.151881C568.15367 326.151613 543.01103 301.023306 511.999488 301.023306zM287.385831 301.023306c-31.010518 0-56.153158 25.128307-56.153158 56.150858 0 31.010271 25.14264 56.151881 56.153158 56.151881s56.153158-25.14161 56.153158-56.151881C343.53899 326.151613 318.39635 301.023306 287.385831 301.023306z"  horiz-adv-x="1024" />

    
    <glyph glyph-name="jiantou-up" unicode="&#58988;" d="M533.906 607.506c-13.58000001 13.99-35.624 13.99-49.204 0-1.01-1.034-1.424-0.4-2.22600001-1.50999999-2.056-1.33199999-4.214-4.224-5.98999999-6.056L21.952 131.85799999999995c-13.27-13.626-13.27-35.67599999 0-49.266 13.198-13.626 34.614-13.626 47.81 0L507.48 533.2819999999999l445.06000001-458.256c13.618-14.022 35.66000001-14.022 49.27399999 0 13.58000001 14.018 13.58000001 36.682 0 50.7l-467.904 481.78h-0.004z m0.004 0"  horiz-adv-x="1024" />

    
    <glyph glyph-name="yulan" unicode="&#59269;" d="M511.697 734.528c-277.29 0-502.084-350.227-502.084-350.227s224.794-350.225 502.084-350.225c285.406-7.368 502.093 350.224 502.093 350.224s-224.794 350.227-502.093 350.227v0zM510.981 104.56c-236.411 0-428.139 280.448-428.139 280.448s191.728 280.482 428.139 280.482c236.446 0 428.104-280.483 428.104-280.483s-191.658-280.447-428.104-280.447v0zM508.759 560.507c-99.054 0-179.316-78.87-179.316-176.205s80.262-176.207 179.316-176.207c99.016 0 179.278 78.872 179.278 176.207s-80.262 176.205-179.278 176.205v0zM508.759 278.583c-59.392 0-107.589 47.287-107.589 105.719 0 58.361 48.166 105.726 107.589 105.726 59.461 0 107.553-47.327 107.553-105.726-0.001-58.432-48.091-105.719-107.553-105.719v0zM508.759 278.583z"  horiz-adv-x="1024" />

    
    <glyph glyph-name="jia-square" unicode="&#58913;" d="M185.45706667 354.18666667c-16.4672 0-29.81333333 13.3504-29.81333334 29.81333333s13.34613333 29.81333333 29.81333334 29.81333333h296.7296V710.5408c0 16.47146667 13.3504 29.8176 29.81333333 29.8176s29.8176-13.34613333 29.8176-29.8176v-296.7296h296.7296c16.4672 0 29.81333333-13.3504 29.81333333-29.81333333s-13.34613333-29.81333333-29.81333333-29.81333334H541.81546667v-296.7296c0-16.47146667-13.35466667-29.8176-29.8176-29.8176s-29.81333333 13.34613333-29.81333334 29.8176V354.18666667H185.45706667zM984.53333333 856.53333333h-945.06666666v-945.06666666h945.06666666v945.06666666z"  horiz-adv-x="1024" />

    
    <glyph glyph-name="shanchu" unicode="&#58962;" d="M565.1403124999999 383.9859375l385.7503125 385.7503125c14.7365625 14.680312500000001 14.7365625 38.530312499999994 0 53.154375-14.680312500000001 14.7365625-38.530312499999994 14.7365625-53.154375 0l-385.7503125-385.7503125-385.7503125 385.8065625c-14.680312500000001 14.7365625-38.530312499999994 14.7365625-53.154375 0-14.7365625-14.680312500000001-14.7365625-38.530312499999994 0-53.154375l385.6940625-385.8065625-385.6940625-385.7503125c-14.7365625-14.680312500000001-14.7365625-38.530312499999994 0-53.154375 7.2562500000000005-7.425 16.9303125-11.08125 26.549062499999998-11.08125s19.236562499999998 3.65625 26.6053125 11.025l385.7503125 385.7503125 385.7503125-385.6940625c7.36875-7.425 16.986562499999998-11.08125 26.6053125-11.08125s19.2928125 3.65625 26.6053125 11.025c14.7365625 14.680312500000001 14.7365625 38.530312499999994 0 53.154375l-385.8065625 385.8065625z"  horiz-adv-x="1024" />

    
    <glyph glyph-name="fanhui" unicode="&#58930;" d="M637.44 624.64h-192l-0 156.16-419.84-209.92 419.84-209.92v156.16h207.36c163.84 0 245.76-69.12 245.76-207.36 0-143.36-84.48-212.48-256-212.48h-481.28v-110.080h488.96c230.4 0 348.16 104.96 348.16 312.32-0 217.6-120.32 325.12-360.96 325.12v0zM637.44 624.64z"  horiz-adv-x="1024" />

    
    <glyph glyph-name="star" unicode="&#58887;" d="M1023.978 525.238l-383.277 0.065-129.543 347.128-125.943-346.601-383.211-0.723 305.437-258.433-107.283-368.245 314.733 219.009 316.865-215.89-110.907 367.169z"  horiz-adv-x="1024" />

    
    <glyph glyph-name="jian" unicode="&#58912;" d="M928.6002157 346.51583525H94.26868148c-21.0491923 0-38.12738845 17.07819615-38.12738845 38.12010667 0 21.04676503 17.07819615 38.12738845 38.12738845 38.12738845h834.32910697c21.08074667 0 38.12496118-17.08062341 38.12496118-38.12738845 0.00242725-21.04191052-17.04421452-38.12010667-38.12253393-38.12010667z m0 0"  horiz-adv-x="1024" />

    
    <glyph glyph-name="xiazai" unicode="&#58929;" d="M950.575625 293.73374999c-20.810625 0-37.74-16.935-37.74-37.75687499v-212.641875H111.95v212.64374999c0 20.82-16.9275 37.756875-37.7325 37.75687501-20.825625 0-37.768125-16.935-37.768125-37.75687501v-250.38374999c0-20.82 16.940625-37.75124999 37.768125-37.75125001h876.358125c20.82 0 37.753125 16.93124999 37.75312499 37.75125001V255.97874998999998c0 20.82-16.93124999 37.755-37.75312499 37.755zM356.609375 450.2175c-10.125 0-19.635-3.97125001-26.77875-11.17125001-14.69624999-14.72625001-14.773125-38.660625-0.208125-53.49562499l154.689375-187.535625 0.215625-0.208125c7.381875-7.411875 17.578125-11.296875 28.36125001-10.824375 0.585-0.02624999 1.17375001-0.039375 1.7625-0.039375 10.1475 0 19.588125 3.853125 26.6025 10.846875l0.41812499 0.463125 154.475625 187.299375c14.54625001 14.835 14.473125 38.769375-0.219375 53.510625-7.141875 7.190625-16.6575 11.15625001-26.773125 11.15625-10.1175 0-19.633125-3.965625-26.788125-11.1675l-0.40125-0.44062501-91.815-111.2925V756.82125001c0 20.844375-16.936875 37.80374999-37.75875 37.80374999-20.805 0-37.7325-16.959375-37.7325-37.80375001V328.51874998999995l-91.05562499 110.31562501-0.20625001 0.21c-7.145625 7.2075-16.655625 11.173125-26.788125 11.173125z"  horiz-adv-x="1024" />

    
    <glyph glyph-name="xiangji" unicode="&#58911;" d="M906.496819 613.275983c0 0-103.597473 0-139.234111 0-46.808072 0-70.206992 92.829222-139.241274 92.829222L395.96424 706.105205c-69.586868 0-92.296079-92.829222-139.228995-92.829222-33.408901 0-139.232065 0-139.232065 0-69.616544 0-69.616544-69.621661-69.616544-69.621661l0-580.139913c0-68.662823 69.616544-69.617567 69.616544-69.617567l788.993638 0c0 0 69.616544-1.74269 69.616544 69.617567L976.113363 543.654322C976.113363 543.654322 976.113363 613.275983 906.496819 613.275983zM929.70438-13.279053c0 0-16.445554-46.408983-46.414099-46.408983-58.065464 0-742.584656 0-742.584656 0s-46.411029 19.458167-46.411029 46.408983L94.294596 520.448808c0 46.183855 46.411029 46.411029 46.411029 46.411029s80.394005 0 116.028597 0c70.13229 0 91.307565 92.823082 139.239228 92.823082l232.057193 0c45.301765 0 70.157873-92.823082 139.232065-92.823082 33.401738 0 116.028597 0 116.028597 0s46.414099 0.074701 46.414099-46.411029C929.70438 462.384367 929.70438-13.279053 929.70438-13.279053zM395.971403 265.18917c0-0.061398 0.002047-0.121773 0.002047-0.182149l0 0.185218 46.408983 0c0.001023 38.446637 31.17093 69.614497 69.616544 69.614497 0.001023 0 0.002047 0 0.002047 0l0 46.414099-0.002047 0C447.919543 381.219813 395.971403 329.268604 395.971403 265.18917zM512 497.24841c-128.159892 0-232.057193-103.896278-232.057193-232.05924 0-128.159892 103.896278-232.057193 232.057193-232.057193 128.162962 0 232.057193 103.896278 232.057193 232.057193C744.05617 393.351108 640.162962 497.24841 512 497.24841zM512 79.543006c-102.530165 0-185.645141 83.115999-185.645141 185.645141s83.115999 185.645141 185.645141 185.645141 185.645141-83.115999 185.645141-185.645141S614.529141 79.543006 512 79.543006zM840.673671 520.458017l-54.009078 0c-26.862811 0-25.755594-23.210631 0.005117-23.210631 25.764803 0 24.547069 0.002047 54.003961 0.002047C866.408799 497.250456 866.811981 520.458017 840.673671 520.458017z"  horiz-adv-x="1024" />

    
    <glyph glyph-name="direction-up" unicode="&#58920;" d="M927.06913057 434.57442158L516.89879932 812.59174043c-10.69985391 11.59676455-28.166625 11.59676455-38.80875235 0l-381.15276328-378.01731885c-10.62716045-11.62562783-10.62716045-30.57406523 0-42.19969306l2.30909063-2.45020167c10.62716045-11.62562783 28.09393154-11.62562783 38.79378545 0L465.62309844 711.01956328v-734.21587177c0-17.26579512 13.97747901-31.25610263 31.18554668-31.25610177 17.26579512 0 31.17271817 13.99030752 31.17271816 31.25610177V713.22816503l357.98702959-323.30363818c10.70199229-11.62562783 28.166625-11.62562783 38.79378545 0l2.308021 2.45020167c10.62716045 11.62455908 10.62716045 30.57406523-0.00106875 42.19969306z"  horiz-adv-x="1024" />

    
    <glyph glyph-name="jian-square-o" unicode="&#58905;" d="M799.39626667 356.16426666999996H223.8208c-14.5216 0-26.304 12.68266667-26.304 28.3072 0 15.6288 11.7824 28.31146667 26.304 28.31146666h575.57546667c14.5408 0 26.29973333-12.68266667 26.29973333-28.31146666 0-15.62453333-11.75893333-28.3072-26.29973333-28.3072z m0 0M984.53333333-88.53333333h-945.06666666v945.06666666h945.06666666v-945.06666666zM940.63786667 812.63786667H83.35786667v-857.27573334h857.28V812.63786667z"  horiz-adv-x="1024" />

    
    <glyph glyph-name="jia-square-o" unicode="&#58906;" d="M984.56746667-88.53333333h-945.06666667v945.06666666h945.06666667v-945.06666666zM940.66986667 812.63786667H83.39413333v-857.27573334H940.672V812.63786667zM799.42826667 356.16213332999996h-575.57333334c-14.5216 0-26.29973333 12.68266667-26.29973333 28.30933334 0 15.6288 11.77813333 28.31146667 26.29973333 28.31146666h575.57546667c14.5408 0 26.304-12.68266667 26.304-28.31146666 0-15.62666667-11.7632-28.30933333-26.30613333-28.30933334z m0 0M539.86986667 671.3984v-575.5776c0-14.5216-12.68266667-26.29973333-28.30933334-26.29973333-15.6288 0-28.31146667 11.77813333-28.31146666 26.29973333V671.3984c0 14.5408 12.68266667 26.30186667 28.31146666 26.30186667 15.62666667 0 28.30933333-11.76106667 28.30933334-26.30186667z m0 0"  horiz-adv-x="1024" />

    
    <glyph glyph-name="shouye" unicode="&#58907;" d="M977.688125 377.259375L513.445625 829.4137499999999 49.205 378.58875c-9.07875-8.818125-9.586875-23.65125-1.09875-33.10125 8.47875-9.444375 22.734375-9.976875 31.809375-1.138125l433.5 420.950625 433.516875-422.233125c4.348125-4.231875 9.87375-6.324375 15.380625-6.324375 5.99625 0 12 2.4825 16.426875 7.423125 8.49375 9.440625 8.02875 24.25875-1.051875 33.09375z m-141.6675-9.286875c-12.421875 0-22.501875-10.4925-22.501875-23.41875v-359.12625h-180.0525v249.825H393.396875v-249.825H213.351875V344.55375000000004c0 12.928125-10.070625 23.41875-22.505625 23.41875-12.4425 0-22.51125-10.4925-22.51125-23.41875v-405.9675h270.07875v249.825h150.039375v-249.825h270.075V344.55375000000004c-0.001875 12.92625-10.08375 23.41875-22.5075 23.41875zM678.4775 703.674375h135.039375v-124.9125c0-12.945 10.08-23.4225 22.501875-23.4225 12.42375 0 22.5075 10.4775 22.5075 23.4225V750.515625h-180.04875c-12.425625 0-22.5075-10.47375-22.5075-23.420625 0-12.94125 10.081875-23.420625 22.5075-23.420625z m0 0"  horiz-adv-x="1024" />

    
    <glyph glyph-name="laji" unicode="&#58915;" d="M482.83525391 579.1646484400001c0 17.74335938 14.53974609 32.03701172 32.03613281 32.03701172l0 0c17.49638672 0 32.03789062-14.53886719 32.03789062-32.03701172l0-485.97539063c0-17.74248047-14.54150391-32.03701172-32.03789062-32.03701172l0 0c-17.74335938 0-32.03613281 14.540625-32.03613281 32.03701172L482.83525391 579.1646484400001 482.83525391 579.1646484400001zM331.76972656 579.1646484400001c0 17.74335938 14.29365234 32.03701172 32.03701172 32.03701172l0 0c17.74335938 0 32.03613281-14.53886719 32.03613281-32.03701172l0-485.97539063c0-17.74248047-14.53886719-32.03701172-32.03613281-32.03701172l0 0c-17.74335938 0-32.03701172 14.540625-32.03701172 32.03701172L331.76972656 579.1646484400001 331.76972656 579.1646484400001zM633.65556641 579.1646484400001c0 17.74335938 14.53974609 32.03701172 32.03613281 32.03701172l0 0c17.74423828 0 32.03701172-14.53886719 32.03701172-32.03701172l0-485.97539063c0-17.74248047-14.540625-32.03701172-32.03701172-32.03701172l0 0c-17.49638672 0-32.03613281 14.540625-32.03613281 32.03701172L633.65556641 579.1646484400001 633.65556641 579.1646484400001zM899.31640625 736.63828125L773.13886719 736.63828125l-46.08369141 0L727.05517578 777.0547851599999c0 31.29697266-28.09423828 55.940625-64.07314453 55.940625L366.51728516 832.99541016c-35.98066406 0-64.07314453-24.64365234-64.07314454-55.940625l0-40.17041016-46.08457031 0L125.00703125 736.884375c-17.74335938 0-32.03613281-14.29277344-32.03613281-32.03701172s14.29365234-32.03701172 32.03613281-32.03701172l67.52460937 0L192.53164062-2.9208984399999736c0-34.50058594 28.83339844-62.59570313 64.07314454-62.59570312l516.78017578 0c35.240625 0 64.07314453 28.09511719 64.07314453 62.59570312L837.45810547 672.56425781l61.85654297 0c17.74248047 0 32.03525391 14.29365234 32.0352539 32.03701172C931.35166016 722.34550781 917.05800781 736.63828125 899.31640625 736.63828125L899.31640625 736.63828125zM366.51728516 768.67617188l296.46474609-1e-8 0-32.03789062L366.51728516 736.63828125 366.51728516 768.67617188 366.51728516 768.67617188zM739.3765625-1.6877929700000323c0 0-414.50712891-1.48007813-449.74775391-1.48007812s-33.26923828 36.22675781-33.26923828 36.22675781L256.35957031 641.75947266c0 36.96679688 31.29697266 30.80478516 31.29697266 30.80478515l78.86074219 0 296.46474609 0 72.45351562 0c0 0 37.70419922 2.21835937 37.70419922-30.80478515 0-33.02226563 0.49306641-580.85332031 0.49306641-611.90507813C773.63193359-0.9495117200000323 739.3765625-1.6877929700000323 739.3765625-1.6877929700000323L739.3765625-1.6877929700000323z"  horiz-adv-x="1024" />

    
    <glyph glyph-name="shezhi" unicode="&#58938;" d="M924.12363594 479.10545438l-87.77454563 17.58545437c-4.40727281 12.69818156-9.57818156 25.00363594-15.33818156 36.91636406l49.68 74.55272719c15.16363594 22.71272719 12.15272719 52.97454563-7.15636406 72.28363594l-55.09090875 55.06909125c-11.08363594 11.08363594-25.72363594 16.8-40.51636406 16.8-10.97454562 0-22.05818156-3.18545437-31.72363594-9.62181844l-74.55272719-49.68c-11.93454562 5.80363594-24.24 10.93090875-36.93818156 15.33818156l-17.56363594 87.77454563C601.76 822.91636406 578.26181844 842.18181844 550.94545437 842.18181844l-77.91272718 0c-27.29454562 0-50.81454563-19.26545437-56.16-46.05818157l-17.58545438-87.77454562c-12.69818156-4.40727281-25.00363594-9.57818156-36.91636406-15.33818156l-74.55272719 49.68c-9.70909125 6.45818156-20.74909125 9.62181844-31.74545437 9.62181844-14.79272719 0-29.45454563-5.71636406-40.51636406-16.8L160.48727281 680.44363594c-19.28727281-19.30909125-22.32-49.54909125-7.15636406-72.28363594l49.70181844-74.55272719c-5.80363594-11.93454562-10.93090875-24.24-15.36-36.93818156l-87.77454563-17.56363594C73.08363594 473.76 53.81818156 450.24 53.81818156 422.94545437l0-77.89090874c0-27.29454562 19.26545437-50.81454563 46.05818157-56.16l87.77454562-17.58545438c4.42909125-12.69818156 9.6-25.00363594 15.36-36.91636406l-49.70181844-74.55272719c-15.16363594-22.71272719-12.13090875-52.97454563 7.15636406-72.26181844l55.09090876-55.09090875c11.08363594-11.08363594 25.72363594-16.8 40.51636406-16.8 10.97454562 0 22.05818156 3.18545437 31.74545437 9.62181844l74.55272719 49.68c11.93454562-5.80363594 24.24-10.93090875 36.93818156-15.33818156l17.56363594-87.77454563C422.24-54.91636405999998 445.73818156-74.18181844000003 473.03272719-74.18181844000003l77.91272718 0c27.31636406 0 50.81454563 19.26545437 56.16 46.05818157l17.60727282 87.77454562c12.67636406 4.40727281 24.98181844 9.57818156 36.89454562 15.33818156l74.55272719-49.68c9.68727281-6.45818156 20.74909125-9.62181844 31.72363594-9.62181844 14.81454563 0 29.45454563 5.71636406 40.51636406 16.8l55.09090875 55.09090875c19.30909125 19.28727281 22.32 49.54909125 7.15636406 72.26181844l-49.68 74.55272719c5.80363594 11.95636406 10.93090875 24.24 15.33818156 36.93818156l87.77454563 17.56363594C950.91636406 294.24 970.18181844 317.76 970.18181844 345.05454563l0 77.89090874C970.18181844 450.24 950.91636406 473.76 924.12363594 479.10545438zM825.11272719 327.49090875c-19.87636406-3.99272719-36.19636406-18.19636406-42.85090875-37.35272719-3.70909125-10.56-7.96363594-20.81454563-12.80727281-30.78545437-8.85818156-18.26181844-7.39636406-39.84 3.90545437-56.74909125l49.68-74.55272719-55.09090875-55.09090875-74.55272719 49.70181844c-9.55636406 6.37090875-20.64 9.6-31.76727281 9.6-8.50909125 0-17.04-1.89818156-24.96-5.69454563-9.92727281-4.82181844-20.18181844-9.16363594-30.78545438-12.85090875-19.15636406-6.65454563-33.36-22.95272719-37.33090874-42.85090875l-17.60727282-87.79636406-77.91272718 0-17.56363594 87.79636406c-3.97090875 19.89818156-18.17454563 36.19636406-37.33090876 42.85090875-10.58181844 3.68727281-20.83636406 7.96363594-30.78545437 12.80727283-7.92 3.84-16.45090875 5.73818156-24.98181843 5.73818155-11.12727281 0-22.21090875-3.22909125-31.76727282-9.6l-74.55272718-49.70181844L200.98181844 128.07272719000002l49.68 74.55272719c11.25818156 16.88727281 12.72 38.46545438 3.92727281 56.72727281-4.82181844 9.92727281-9.14181844 20.20363594-12.82909125 30.78545437-6.65454563 19.15636406-22.95272719 33.36-42.85090875 37.33090875l-87.77454562 17.60727282-0.02181844 77.89090875 87.79636406 17.58545437c19.89818156 3.97090875 36.19636406 18.17454563 42.85090875 37.33090875 3.68727281 10.56 7.96363594 20.83636406 12.80727281 30.78545438 8.85818156 18.26181844 7.37454563 39.84-3.88363594 56.74909125L200.98181844 639.92727281l55.09090875 55.09090875 74.55272719-49.70181843c9.55636406-6.37090875 20.64-9.6 31.76727281-9.6 8.50909125 0 17.04 1.89818156 24.96 5.71636406 9.92727281 4.8 20.18181844 9.14181844 30.78545437 12.82909125 19.15636406 6.67636406 33.36 22.97454562 37.33090875 42.85090875l17.58545438 87.77454562 77.91272719 0.02181844 17.56363593-87.79636406c3.99272719-19.87636406 18.19636406-36.17454563 37.33090874-42.85090875 10.58181844-3.68727281 20.83636406-7.96363594 30.80727283-12.80727282 7.89818156-3.84 16.45090875-5.73818156 24.98181843-5.73818156 11.12727281 0 22.21090875 3.22909125 31.76727282 9.6l74.55272718 49.70181844 55.09090874-55.09090875-49.68-74.55272719c-11.25818156-16.88727281-12.74181844-38.46545438-3.9272728-56.72727281 4.8-9.92727281 9.12-20.18181844 12.82909125-30.78545438 6.65454563-19.15636406 22.97454562-33.36 42.85090875-37.33090875l87.75272719-17.60727281 0.04363594-77.89090875L825.11272719 327.49090875zM512 584.4436359399999c-110.68363594 0-200.46545437-89.76-200.46545437-200.46545438s89.76-200.46545437 200.46545437-200.46545437 200.46545437 89.76 200.46545437 200.46545437S622.68363594 584.4436359399999 512 584.4436359399999zM512 253.09090875000004c-72.28363594 0-130.90909125 58.64727281-130.90909125 130.90909125s58.62545437 130.90909125 130.90909125 130.90909125c72.28363594 0 130.90909125-58.64727281 130.90909125-130.90909125S584.28363594 253.09090875000004 512 253.09090875000004z"  horiz-adv-x="1024" />

    
    <glyph glyph-name="sanjiaojiantou-down" unicode="&#58924;" d="M512.00287812 173.55995812000003l390.80543438 420.88008375L121.19168844 594.4400418800001 512.00287812 173.55995812000003"  horiz-adv-x="1024" />

    
    <glyph glyph-name="bianji" unicode="&#58916;" d="M901.1199999999999 773.12c-68.26666666666667 68.26666666666667-177.49333333333334 61.44-245.76 0l-477.8666666666667-477.8666666666667c0 0 0 0 0 0L170.66666666666669 281.6l-109.22666666666667-334.50666666666666 341.3333333333333 75.09333333333333L907.9466666666667 520.5333333333333C976.2133333333334 588.8000000000001 976.2133333333334 704.8533333333334 901.1199999999999 773.12zM252.5866666666667 110.9333333333334l-61.44 0 40.96 116.05333333333333 75.09333333333333-6.826666666666667c27.30666666666667 0 54.61333333333334-27.30666666666667 54.61333333333334-54.61333333333334l6.826666666666667-75.09333333333333-122.88-27.30666666666667L252.5866666666667 110.9333333333334zM416.4266666666666 226.98666666666668c0 27.30666666666667-20.48 54.61333333333334-54.61333333333334 54.61333333333334L279.8933333333333 288.4266666666666l354.9866666666667 354.9866666666667L785.0666666666666 500.05333333333334l-361.81333333333333-361.81333333333333L416.4266666666666 226.98666666666668zM860.1600000000001 568.32l-27.30666666666667-27.30666666666667-150.18666666666667 150.18666666666667 27.30666666666667 27.30666666666667c40.96 40.96 109.22666666666667 40.96 150.18666666666667 0C901.1199999999999 684.3733333333333 901.1199999999999 616.1066666666667 860.1600000000001 568.32z"  horiz-adv-x="1024" />

    
    <glyph glyph-name="jiantou-down" unicode="&#58965;" d="M533.91 75.00199999999995l467.904 481.782c13.58000001 14.018 13.58000001 36.682 0 50.69999999-13.614 14.022-35.656 14.022-49.27399999 0L507.48 149.226 69.762 599.91599999c-13.198 13.626-34.61199999 13.626-47.81 2e-8-13.27-13.59-13.27-35.64 0-49.26600001l454.534-468.082c1.776-1.832 3.934-4.72400001 5.99000001-6.056 0.8-1.11 1.216-0.47599999 2.22599999-1.51 13.58000001-13.99 35.624-13.99 49.204 0h0.004z m0 0"  horiz-adv-x="1024" />

    
    <glyph glyph-name="sanjiaojiantou-up" unicode="&#58928;" d="M923.73330078 179.65781249999998h-817.43818359l408.6852539 408.68525391z"  horiz-adv-x="1024" />

    
    <glyph glyph-name="yinliang-right" unicode="&#58972;" d="M260.48 543.36c40.32-38.4 63.36-94.080 63.36-153.6 0-61.44-26.88-119.040-71.040-157.44l26.88-32.64c51.84 46.080 82.56 113.28 82.56 188.16 0 72.96-28.8 136.32-78.72 182.4l-23.040-26.88zM421.76 710.4l-28.8-28.8c76.8-74.88 122.88-176.64 122.88-291.84 0-119.040-51.84-222.72-132.48-297.6l26.88-32.64c88.32 80.64 145.92 199.68 145.92 328.32 1.92 128.64-51.84 241.92-134.4 322.56zM569.6 864l-28.8-28.8c115.2-113.28 186.24-268.8 186.24-443.52 0-180.48-76.8-341.76-201.6-455.040l26.88-32.64c134.4 120.96 216.96 293.76 216.96 485.76 0 186.24-74.88 353.28-199.68 474.24z"  horiz-adv-x="1024" />

    
    <glyph glyph-name="yinliang-left" unicode="&#58973;" d="M768.745 543.36l-23.041 26.88c-49.92-46.080-78.72-109.44-78.72-182.4 0-74.88 30.72-142.080 82.56-188.159l26.88 32.639c-44.16 38.399-71.040 95.999-71.040 157.44 0.001 59.52 23.040 115.2 63.361 153.6zM607.465 710.4c-82.56-80.64-136.32-193.92-134.4-322.56 0-128.64 57.6-247.68 145.92-328.32l26.88 32.639c-80.641 74.88-132.48 178.56-132.48 297.601 0 115.2 46.079 216.96 122.88 291.84l-28.8 28.8zM459.625 864c-124.8-120.96-199.68-288-199.68-474.24 0-192 82.56-364.8 216.959-485.76l26.881 32.639c-124.801 113.281-201.6 274.56-201.6 455.041 0 174.72 71.040 330.24 186.24 443.52l-28.8 28.8z"  horiz-adv-x="1024" />

    
    <glyph glyph-name="jujue" unicode="&#58940;" d="M829.184 699.936c-176.384 176.416-462.368 176.448-638.784 0-176.416-176.416-176.352-462.368 0-638.752 176.416-176.416 462.4-176.448 638.784 0C1005.6 237.568 1005.568 523.52 829.184 699.936zM243.616 114.368c-137.632 137.6-146.368 355.232-26.336 503.072l529.376-529.408C598.816-32 381.216-23.232 243.616 114.368zM792.512 132.736 261.952 663.296c147.872 129.824 372.896 124.576 514.016-16.544C917.088 505.6 922.336 280.608 792.512 132.736z"  horiz-adv-x="1024" />

    
    <glyph glyph-name="zhiding" unicode="&#58989;" d="M471.912 646.961l-361.794-361.813c-20.853-20.828-29.86-45.677-8.989-66.537 20.853-20.846 45.683-11.865 66.537 8.983l304.042 304.041v-547.406c0-27.162 11.841-49.176 38.997-49.176 27.164 0 42.402 22.014 42.402 49.176v547.408l303.613-303.616c20.859-20.847 45.069-30.446 65.95-9.587 20.853 20.877 12.451 46.288-8.403 67.137l-361.861 361.86c0 0-21.679 24.67-38.131 24.67-19.527 0-42.365-25.136-42.365-25.136v0 0l0.001-0.003zM144.425 751.553h735.109c33.895 0 53.417 10.358 53.415 39.877 0 29.466-16.948 41.522-53.417 41.522l-735.109 0c-33.754 0-53.415-11.207-53.415-40.696s20.177-40.702 53.415-40.702v0 0h0.001z"  horiz-adv-x="1024" />

    
    <glyph glyph-name="chongzhi" unicode="&#59019;" d="M879.843 705.019c-85.746 85.746-199.753 132.97-321.018 132.97-191.1 0-361.299-119.451-426.54-298.24l-47.053 82.155c-10.881 18.997-35.107 25.581-54.105 14.698-18.999-10.882-25.581-35.105-14.698-54.105l96.847-169.090c7.324-12.787 20.687-19.948 34.438-19.948 6.681 0 13.453 1.692 19.666 5.251l169.090 96.846c18.998 10.882 25.581 35.105 14.698 54.105-10.879 18.998-35.103 25.581-54.105 14.698l-90.259-51.696c53.87 147.502 194.321 246.041 352.021 246.041 206.611 0 374.701-168.090 374.701-374.698 0-206.61-168.090-374.701-374.701-374.701-160.377 0-302.917 101.909-354.693 253.591-7.073 20.72-29.606 31.785-50.325 24.711-20.721-7.072-31.785-29.605-24.713-50.326 62.734-183.786 235.43-307.265 429.729-307.265 121.264 0 235.27 47.223 321.019 132.971s132.971 199.755 132.971 321.020-47.223 235.265-132.972 321.013z"  horiz-adv-x="1024" />

    
    <glyph glyph-name="dayin" unicode="&#58927;" d="M914.867 675.098 804.685 675.098l0 88.781c0 40.474-20.582 82.278-61.056 82.278L303.386 846.157c-40.474 0-85.12-41.805-85.12-82.278l0-88.781-86.118 0c-40.448 0-84.941-41.984-84.941-82.458l0-269.056c0-40.474 44.493-63.897 84.941-63.897l86.093 0 0-274.278c0-40.474 44.646-63.565 85.12-63.565l440.269 0c40.474 0 61.056 23.092 61.056 63.565L804.686 259.712l110.183 0c40.474 0 61.927 23.424 61.927 63.897L976.796 592.64C976.794 633.114 955.341 675.098 914.867 675.098L914.867 675.098zM267.136 763.878c0 13.491 22.784 34.458 36.25 34.458l440.269 0c13.491 0 12.186-20.966 12.186-34.458l0-88.781L267.136 675.097 267.136 763.878 267.136 763.878zM755.814-5.223c0-13.491-10.599-25.113-24.09-25.113L291.431-30.336c-13.491 0-24.295 11.622-24.295 25.113L267.136 357.401c0 13.517 10.804 24.474 24.295 24.474l440.294 0c13.491 0 24.09-10.957 24.09-24.474L755.815-5.223 755.814-5.223zM926.873 323.609c0-13.491 1.511-15.027-12.006-15.027L804.685 308.582l0 39.476c0 40.474-20.582 82.688-61.056 82.688L303.386 430.746c-40.474 0-85.12-42.215-85.12-82.688l0-39.476-86.118 0c-13.466 0-36.071 1.536-36.071 15.027L96.077 592.64c0 13.491 22.605 33.587 36.071 33.587l782.72 0c13.491 0 12.006-20.096 12.006-33.587L926.874 323.609 926.873 323.609zM685.184 273.511 342.733 273.511c-13.491 0-24.448-10.368-24.448-23.911 0-13.542 10.957-23.91 24.448-23.91l342.451 0c13.518 0 24.448 10.368 24.448 23.91C709.632 263.143 698.701 273.511 685.184 273.511L685.184 273.511zM685.184 132.198 342.733 132.198c-13.491 0-24.448-10.905-24.448-24.422 0-13.518 10.957-24.423 24.448-24.423l342.451 0c13.518 0 24.448 10.905 24.448 24.423C709.632 121.293 698.701 132.198 685.184 132.198L685.184 132.198zM833.5 565.5m-36 0a36 36 0 1 0 72 0 36 36 0 1 0-72 0Z"  horiz-adv-x="1024" />

    
    <glyph glyph-name="xin-xz" unicode="&#58886;" d="M729.34968889 846.01514667c-85.51310222 0-165.02328889-42.9056-217.34968889-113.63214222-52.30592 70.74474667-131.79335111 113.63214222-217.34968889 113.63214222-154.14840889 0-279.55882667-137.10904889-279.55882666-305.65944889 0-100.55224889 44.92174222-171.09219555 81.03025777-227.75808 104.93269333-164.62051555 368.77880889-369.48423111 379.95633778-378.12451556 10.75655111-8.31943111 23.35630222-12.48369778 35.91054222-12.48369777 12.57927111 0 25.14488889 4.16426667 35.90371556 12.48369777 11.18890667 8.64028445 275.05322667 213.504 379.95406222 378.12451556 36.12899555 56.67726222 81.06211555 127.20810667 81.06211555 227.75808-0.01137778 168.54812445-125.41724445 305.65944889-279.55882666 305.65944889z"  horiz-adv-x="1024" />

    
    <glyph glyph-name="xin" unicode="&#58889;" d="M729.34968889 846.01514667c-85.51310222 0-165.02328889-42.9056-217.34968889-113.63214222-52.30592 70.74474667-131.79335111 113.63214222-217.34968889 113.63214222-154.14840889 0-279.55882667-137.10904889-279.55882666-305.65944889 0-100.55224889 44.92174222-171.09219555 81.03025777-227.75808 104.93269333-164.62051555 368.77880889-369.48423111 379.95633778-378.12451556 10.75655111-8.31943111 23.35630222-12.48369778 35.91054222-12.48369777 12.57927111 0 25.14488889 4.16426667 35.90371556 12.48369777 11.18890667 8.64028445 275.05322667 213.504 379.95406222 378.12451556 36.12899555 56.67726222 81.06211555 127.20810667 81.06211555 227.75808-0.01137778 168.54812445-125.41724445 305.65944889-279.55882666 305.65944889z m147.456-494.52373334C776.92245333 194.74887110999998 511.97724445-9.982862220000015 511.97724445-9.982862220000015s-264.90424889 204.73173333-364.81479112 361.47427555c-36.84807111 57.87192889-69.85045333 112.87210667-69.85045333 188.86428445 0 131.22673778 97.28910222 237.63854222 217.33603555 237.63854222 88.71480889 0 164.87082667-58.19733333 198.64462223-141.52135111v0.41187556h0.09102222c2.51904-8.67896889 9.85315555-15.01639111 18.59356445-15.01639112 8.77226667 0 16.10638222 6.33742222 18.60494222 15.01639112h0.25486222c33.86709333 83.07598222 109.91160889 141.10947555 198.50808889 141.10947555 120.00824889 0 217.32920889-106.42318222 217.32920889-237.63854222 0.00455111-75.99445333-32.98872889-130.99235555-69.86865778-188.86428445z m0 0"  horiz-adv-x="1024" />

    
    <glyph glyph-name="xinxi-o" unicode="&#58970;" d="M512 834C263.85434756 834 62 632.14565244 62 384 62 293.84347821999995 88.56956533 206.81739112000002 138.87173955 132.39130401 147.95 118.95000000000005 166.18478222 115.42826045000004 179.62608711 124.48695644999998 193.04782578 133.56521778 196.58913067 151.81956533000005 187.51086933 165.24130401000002 143.80217422 229.94347821999997 120.69565244 305.58260887999995 120.69565244 384 120.69565244 599.7652177800001 296.23478222 775.30434756 512 775.30434756 727.76521778 775.30434756 903.30434756 599.7652177800001 903.30434756 384 903.30434756 168.23478222000006 727.76521778-7.3043475599999965 512-7.3043475599999965 431.74347823-7.3043475599999965 354.61739112 16.799999999999955 288.97608711 62.426087110000026 275.61304355 71.68043466999995 257.35869599 68.41304356 248.12391289 55.08913066000002 238.86956533 41.78478223000002 242.15652177 23.49130401000002 255.46086934 14.256521779999957 331.00217422-38.25652177999996 419.71086934-66 512-66 760.14565244-66 962 135.85434755999995 962 384 962 632.14565244 760.14565244 834 512 834ZM512.00391289 624.9123911199999C479.58434756 624.9123911199999 453.30826045 598.63630401 453.30826045 566.21673955 453.30826045 533.79717422 479.58434756 507.52108711 512.00391289 507.52108711 544.42347822 507.52108711 570.69956533 533.79717422 570.69956533 566.21673955 570.69956533 598.63630401 544.42347822 624.9123911199999 512.00391289 624.9123911199999ZM512 456.12717422C484.98043467 456.12717422 463.08695645 434.23369599 463.08695645 407.21413066L463.08695645 172.43152178000003C463.08695645 145.41195644000004 484.98043467 123.51847822000002 512 123.51847822000002 539.01956533 123.51847822000002 560.91304355 145.41195644000004 560.91304355 172.43152178000003L560.91304355 407.21413066C560.91304355 434.23369599 539.01956533 456.12717422 512 456.12717422Z"  horiz-adv-x="1024" />

    
    <glyph glyph-name="xuanze" unicode="&#59051;" d="M511.98875-64.24406250000004c-247.155 0-448.23375 201.0796875-448.23375 448.2553125 0 247.155 201.0796875 448.23375 448.23375 448.23375 247.175625 0 448.2553125-201.0796875 448.2553125-448.23375 0-247.1765625-201.07875-448.2553125-448.2553125-448.2553125zM511.98875 799.70625c-229.21125 0-415.6959375-186.4828125-415.6959375-415.6959375 0-229.2328125 186.4828125-415.715625 415.6959375-415.715625 229.2328125 0 415.715625 186.4828125 415.715625 415.715625 0.0009375 229.2121875-186.481875 415.6959375-415.715625 415.6959375z"  horiz-adv-x="1024" />

    
    <glyph glyph-name="paixu" unicode="&#58931;" d="M389.929 807.858c-1.93 4.514-4.726 8.747-8.41 12.431-11.173 11.173-27.357 14.271-41.314 9.312-3.345-1.187-6.551-2.838-9.54-4.957-1.821-1.282-3.557-2.727-5.185-4.355-1.626-1.627-183.706-184.529-183.706-184.529-15.469-15.476-15.475-40.564 0-56.039 15.474-15.474 40.565-15.474 56.039 0l116.057 116.057v-720.050c0-21.882 17.744-39.627 39.627-39.619 21.887 0 39.625 17.737 39.625 39.619l0 816.54h-0.019c0 5.312-1.051 10.624-3.174 15.59v0zM882.228 188.273c-15.475 15.475-40.566 15.475-56.040 0l-116.063-116.051 0.006 720.045c0 21.887-17.744 39.625-39.632 39.625-21.882 0-39.62-17.738-39.62-39.625v-816.539h0.012c0.005-5.306 1.057-10.623 3.18-15.59 1.93-4.513 4.725-8.741 8.411-12.426 11.175-11.175 27.355-14.277 41.314-9.316 3.346 1.185 6.55 2.843 9.54 4.955 1.82 1.288 3.557 2.734 5.184 4.362 1.626 1.627 183.706 184.522 183.706 184.522 15.469 15.475 15.469 40.563 0.002 56.038v0zM882.228 188.273z"  horiz-adv-x="1024" />

    
    <glyph glyph-name="caidan" unicode="&#59097;" d="M111.99999969 643.99999969l799.99999969 0c22.00000031 0 40.00000031 18 40.00000031 40.00000031 0 22.00000031-18 40.00000031-40.00000031 40.00000031L111.99999969 724.00000031C90.00000031 724.00000031 72.00000031 706.00000031 72.00000031 684 72.00000031 661.99999969 90.00000031 643.99999969 111.99999969 643.99999969zM912.00000031 424.00000031L111.99999969 424.00000031c-22.00000031 0-40.00000031-18-40.00000031-40.00000031 0-22.00000031 18-40.00000031 40.00000031-40.00000031l799.99999969 0c22.00000031 0 40.00000031 18 40.00000031 40.00000031C951.99999969 406.00000031 933.99999969 424.00000031 912.00000031 424.00000031zM912.00000031 124.00000031000002L111.99999969 124.00000031000002c-22.00000031 0-40.00000031-18-40.00000031-40.00000031 0-22.00000031 18-40.00000031 40.00000031-40.00000031l799.99999969 0c22.00000031 0 40.00000031 18 40.00000031 40.00000031C951.99999969 106.00000031000002 933.99999969 124.00000031000002 912.00000031 124.00000031000002z"  horiz-adv-x="1024" />

    
    <glyph glyph-name="fujian" unicode="&#58967;" d="M441.342 122.67c-42.414-58.857-125.388-73.563-185.269-32.868-59.883 40.692-74.009 121.417-31.562 180.257v0c2.713 3.74 4.102 5.758 6.385 8.9l358.496 497.348c2.215 3.142 5.162 5.508 8.171 7.627 73.843 83.387 200.554 101.899 294.181 38.277 93.627-63.637 119.068-185.6 63.652-281.46-0.992-3.507-2.316-6.98-4.565-10.124l-345.692-479.568c-2.283-3.161-5.161-7.13-6.418-8.884v0c-99.020-137.33-292.494-171.673-432.272-76.704-139.714 94.983-172.731 283.296-73.744 420.627v0c2.878 4.185 4.134 5.741 6.384 8.883l294.511 408.519c10.621 14.722 31.331 18.411 46.318 8.238 14.954-10.19 18.494-30.37 7.907-45.076l-294.512-408.535c-2.25-3.142-4.83-6.816-6.352-8.866v0 0c-77.813-107.919-51.876-255.887 57.897-330.507 109.772-74.621 261.891-47.641 339.637 60.278v0c2.516 3.375 4.135 5.724 6.419 8.866l339.274 470.684c49.526 68.682 32.985 162.855-36.855 210.331-69.874 47.475-166.643 30.321-216.138-38.345l-352.11-488.466c-2.215-3.143-5.027-6.915-6.384-8.884v0c-21.241-29.411-14.128-69.774 15.813-90.138 29.941-20.347 71.395-12.985 92.603 16.459M387.118 159.526l259.376 359.803c10.62 14.722 31.33 18.411 46.317 8.222 14.955-10.173 18.495-30.354 7.907-45.060l-259.376-359.821-54.224 36.857z"  horiz-adv-x="1024" />

    
    <glyph glyph-name="gongju" unicode="&#59117;" d="M935.816533 70.331733 754.807467 251.3408l24.149333 24.1664-24.132267 24.132267-72.379733-72.3968-120.712533 120.695467 145.032533 145.0496c19.319467-6.877867 39.509333-10.359467 60.228267-10.359467 47.803733 0 92.757333 18.619733 126.5664 52.394667 52.1728 52.206933 66.9696 129.774933 37.700267 197.632l-9.949867 23.108267-77.789867-77.789867-62.634667-0.853333 0.836267 59.733333L861.013333 816.128 837.973333 826.112c-22.613333 9.7792-46.626133 14.7456-71.3728 14.7456-47.8208 0-92.757333-18.619733-126.5152-52.411733-49.493333-49.4592-65.399467-121.719467-41.984-186.948267l-144.981333-144.981333-205.175467 205.141333 24.149333 24.132267L139.383467 818.500267l-72.465067-72.362667 132.7616-132.744533 24.1152 24.132267 205.175467-205.141333L283.989333 287.402667c-19.370667 6.929067-39.645867 10.427733-60.433067 10.427733-47.803733 0-92.757333-18.6368-126.532267-52.4288-52.2752-52.241067-67.054933-129.928533-37.632-197.870933l9.984-23.04 79.291733 79.291733 59.716267 0.802133-0.853333-62.634667L129.7408-35.84l23.108267-9.9328c22.545067-9.728 46.472533-14.660267 71.099733-14.660267 47.8208 0 92.740267 18.602667 126.5152 52.394667 49.425067 49.425067 65.3312 121.6 42.069333 186.7264l145.066667 145.066667 120.712533-120.661333-72.430933-72.430933 24.132267-24.132267 24.132267 24.132267 180.992-180.992c16.110933-16.128 37.563733-25.002667 60.347733-25.002667s44.219733 8.874667 60.347733 25.002667C969.096533-17.066667 969.079467 37.0688 935.816533 70.331733zM115.217067 746.1376l24.149333 24.098133 84.445867-84.445867L199.68 661.6576 115.217067 746.1376zM356.881067 176.093867c23.671467-54.9376 11.6736-117.76-30.5664-160-27.3408-27.3408-63.675733-42.3936-102.382933-42.3936-11.1104 0-22.050133 1.2288-32.699733 3.703467l50.210133 50.2272 1.518933 111.5648L134.314667 137.728l-51.831467-51.831467c-11.400533 48.3328 2.594133 99.328 38.673067 135.3728 27.357867 27.374933 63.709867 42.427733 102.4 42.427733 20.053333 0 39.4752-4.027733 57.8048-11.963733l10.6496-4.608 346.350933 346.333867-4.608 10.6496c-23.825067 55.022933-11.844267 117.879467 30.464 160.187733 27.3408 27.357867 63.6928 42.410667 102.382933 42.410667 11.2128 0 22.237867-1.262933 32.989867-3.754667l-51.797333-51.797333-1.501867-108.663467 111.5648 1.518933 50.261333 50.244267c11.264-48.247467-2.747733-99.157333-38.7072-135.133867-27.374933-27.3408-63.726933-42.3936-102.434133-42.3936-19.985067 0-39.3728 3.9936-57.6512 11.861333l-10.632533 4.590933-346.402133-346.453333L356.881067 176.093867zM911.701333-26.197333c-9.6768-9.659733-22.545067-15.0016-36.215467-15.0016-13.687467 0-26.538667 5.341867-36.215467 15.0016L658.261333 154.794667l72.3968 72.3968 181.009067-180.992C931.652267 26.231467 931.652267-6.229333 911.701333-26.197333z"  horiz-adv-x="1024" />

    
    <glyph glyph-name="taolun" unicode="&#58955;" d="M485.734 819.141c-235.219 0-425.578-165.594-425.578-369.875 0-125.313 72.734-236.75 182.609-304.813v-114.531c0-15.469 10.828-24.75 23.218-24.75 4.641 0 9.297 1.531 12.375 3.094l116.063 77.375c29.422-6.188 58.813-7.75 89.766-7.75 235.219 0 425.563 165.594 425.563 369.844 1.566 205.813-188.778 371.406-424.016 371.406zM485.734 139.794c-26.313 0-52.624 3.094-78.922 7.75l-12.391 3.094c-7.734 1.531-15.469 0-23.218-4.656l-10.813-7.719-55.719-37.156v60.343c0 10.844-6.188 21.687-15.469 26.313l-15.484 9.281c-95.953 57.281-153.203 151.657-153.203 250.688 0 170.219 162.499 307.938 363.673 307.938 201.188 0 363.657-137.721 363.657-307.938 1.566-168.656-162.467-307.938-362.109-307.938zM244.313 438.453c0-28.219 22.859-51.078 51.078-51.078 28.202 0 51.063 22.859 51.063 51.078 0 28.188-22.859 51.063-51.063 51.063-28.219 0-51.078-22.875-51.078-51.063zM437.766 438.453c0-28.219 22.859-51.078 51.063-51.078s51.078 22.859 51.078 51.078c0 28.188-22.875 51.063-51.078 51.063s-51.063-22.875-51.063-51.063zM625.003 438.453c0-28.219 22.875-51.078 51.063-51.078 28.219 0 51.094 22.859 51.094 51.078 0 28.188-22.875 51.063-51.094 51.063-28.188 0-51.063-22.875-51.063-51.063zM918.128 358.512c-0.912 1.153-1.872 2.256-2.816 3.408-6.656-25.28-16.16-49.632-28.128-72.752 0.496-1.12 1.12-2.192 1.6-3.312 8.096-18.624 12.496-38.752 12.496-59.744 0-55.664-32.16-108.688-86.064-140.848l-8.688-5.216c-5.216-2.592-8.72-8.688-8.72-14.784v-33.904l-31.28 20.88-6.096 4.336c-4.336 2.592-8.688 3.472-13.024 2.592l-6.944-1.712c-14.816-2.656-29.6-4.336-44.336-4.336-35.44 0-68.816 7.84-97.936 21.504-28.912-6.752-58.912-11.008-89.808-12.464 48.4-41.712 115.008-67.504 188.592-67.504 19.504 0 38 0.976 56.496 4.848l73.056-48.688c1.936-0.976 4.848-1.936 7.744-1.936 7.809 0 14.624 5.84 14.624 15.568v72.096c69.152 42.848 114.944 112.976 114.944 191.84 0 48.192-16.832 92.976-45.712 130.128z"  horiz-adv-x="1024" />

    
    <glyph glyph-name="chaxun" unicode="&#59697;" d="M974.782-12.541l-210.453 210.665c126.313 160.148 115.652 393.148-32.033 540.962-159.22 159.349-417.356 159.349-576.57 0-159.22-159.344-159.22-417.699 0-577.049 147.993-148.121 381.44-158.53 541.486-31.287l210.358-210.57c18.56-18.573 48.652-18.573 67.212 0 18.56 18.578 18.56 48.702 0 67.28zM219.481 227.117c-123.831 123.956-123.831 324.931 0 448.88 123.831 123.956 324.607 123.956 448.438 0 123.838-123.951 123.838-324.925 0-448.88-123.831-123.956-324.606-123.956-448.438 0z"  horiz-adv-x="1024" />

    
    <glyph glyph-name="shibai" unicode="&#58968;" d="M662.856879 210.102047c-5.911192 0-11.7992 2.192114-16.305945 6.708252L344.806117 518.50475c-8.998899 8.998899-8.998899 23.597201 0 32.597899s23.597201 8.998899 32.597899 0l301.744817-301.694251c8.998699-8.998699 8.998699-23.597201 0-32.597899-4.497551-4.497551-10.392754-6.708252-16.305945-6.708252l0 0L662.856879 210.102247zM361.112062 210.102047c-5.911192 0-11.7992 2.192114-16.305945 6.708252-8.998899 8.998699-8.998899 23.597201 0 32.597899l301.744817 301.694251c8.998699 8.998899 23.597201 8.998899 32.597899 0 9.000698-8.998899 8.998699-23.597201 0-32.597899L377.403816 216.810498c-4.501348-4.497551-10.392954-6.708252-16.305945-6.708252l0 0L361.112062 210.102247zM511.998361-63.070742c-246.499273 0-447.096069 200.54523-447.096069 447.084876 0 246.499273 200.579007 447.059694 447.096069 447.059694 246.499273 0 447.096269-200.573411 447.096269-447.059694C959.09463 137.473689 758.515622-63.070742 511.998361-63.070742L511.998361-63.070742zM511.998361 784.97948c-221.101893 0-400.996324-179.869049-400.996324-400.959749s179.89723-400.996324 400.996324-400.996324c221.101893 0 400.996324 179.898229 400.996324 400.996324C912.994885 605.121624 733.097656 784.97948 511.998361 784.97948 511.998561 784.97948 511.998561 784.97948 511.998361 784.97948z"  horiz-adv-x="1024" />

    
    <glyph glyph-name="chenggong" unicode="&#58993;" d="M530.305413-61.452351C283.817556-72.119295 75.360873 119.031233 64.691883 365.517043 54.021869 611.992621 245.177514 820.447257 491.644905 831.116247c246.488881 10.670014 454.924073-180.483584 465.614553-426.958138C967.927425 157.692764 776.772804-50.782338 530.305413-61.452351zM493.674121 784.13933c-220.525556-9.553587-391.558907-196.061374-382.006344-416.58386 9.553587-220.532719 196.064444-391.564024 416.608419-382.02988C748.803799-4.901381 919.835104 181.585941 910.280494 402.128893 900.728954 622.652402 714.219119 793.682683 493.674121 784.13933zM478.98763 202.133929l0-0.021489-21.601994-21.925359c-5.963829-6.066159-15.741519-6.187933-21.845541-0.264013l-22.068621 21.439288c0 0.020466 0 0.020466 0 0.020466L278.339798 352.05852c-6.084579 5.922896-6.205329 15.628956-0.242524 21.682835l21.601994 21.946848c5.962805 6.065136 15.759939 6.166443 21.844517 0.25378l124.056434-139.977032 248.373811 273.087679c5.965875 6.065136 15.739473 6.16542 21.846564 0.25378l22.067598-21.430078c6.107091-5.922896 6.207375-15.627932 0.24457-21.693068L478.98763 202.133929z"  horiz-adv-x="1024" />

    
    <glyph glyph-name="direction-down" unicode="&#58933;" d="M927.06611328 332.26318359000004l-410.17148437-378.01845703c-10.69980469-11.59628906-28.16630859-11.59628906-38.80898438 0l-381.15263672 378.01845703c-10.62685547 11.62529297-10.62685547 30.57539063 0 42.2006836l2.30888672 2.44951172c10.62685547 11.62529297 28.09423828 11.62529297 38.79404297 0l327.58417969-321.09433594v734.21542969c0 17.26611328 13.97724609 31.25566406 31.18535156 31.25566406 17.26611328 0 31.17304687-13.98955078 31.17304687-31.25566406v-736.425l357.98730469 323.30302734c10.7015625 11.62529297 28.16630859 11.62529297 38.79404297 0l2.30800781-2.44951172c10.62685547-11.62705078 10.62685547-30.57539063-0.0008789-42.20068359z"  horiz-adv-x="1024" />

    
    <glyph glyph-name="shijian" unicode="&#58974;" d="M511.99723832 836.27922234c-250.4776211 0-453.53164496-203.05540471-453.53164497-453.53302581 0-250.47485942 203.05402387-453.53164496 453.53164497-453.53164496s453.53440665 203.05678555 453.53440664 453.53164496c0 250.47624025-203.05540471 453.53302581-453.53440664 453.53302581z m0-846.59627029c-217.08060495 0-393.0604828 175.9812587-393.0604828 393.06186364 0 217.08198579 175.9812587 393.06186365 393.0604828 393.06186364s393.06186365-175.97987785 393.06186364-393.06186364c0-217.08198579-175.97987785-393.06186365-393.06186364-393.06186364z m196.53093182 362.82697298H511.99723832V549.04085685c0 8.35546782-6.76059667 15.11882617-15.11744533 15.11882617h-30.23489066a15.10916029 15.10916029 0 0 1-15.11744533-15.11882617V307.15896988c0-8.35546782 6.76197751-15.11744533 15.11744533-15.11744533h241.88464865a15.10777944 15.10777944 0 0 1 15.11744534 15.11744533v30.23350982a15.11054113 15.11054113 0 0 1-15.11882618 15.11744533z"  horiz-adv-x="1024" />

    
    <glyph glyph-name="renyuan" unicode="&#58888;" d="M749.54752 264.38144l0.0256 0.16384 0.24576 0.42496 0.10752-0.31744-0.37888-0.27136zM724.86912 276.80768l0.02048 0.14848 0.22016 0.37376 0.09728-0.28672-0.33792-0.23552zM941.14254393-73.62031463000005l-0.01864135 0.13048944c-0.22369621 191.2975451-125.63649271 353.22253463-298.68415507 408.39472016 90.83930396 47.20611481 152.92743073 142.09680574 152.92743073 251.5401781 0 156.50657015-126.87303566 283.37339202-283.37339202 283.37339202S228.62039419 742.9516432099999 228.62039419 586.44507307c0-109.44337237 62.08812677-204.32784953 152.92121695-251.52775055-172.49463561-54.98577199-297.63402562-216.02840423-298.69036885-406.50572989 0-0.20505486 0.08699297-2.442017 0.12427567-2.45444456 0.96935026-14.68938468 13.06758713-26.34022912 27.99930937-26.34022912a28.35970882 28.35970882 0 0 1 28.24164693 26.37129803c0 205.8626541 166.88358893 372.74624303 372.74624304 372.74624304s372.74624303-166.88358893 372.74624303-372.74624304h0.09942054a28.16086775 28.16086775 0 0 1 28.1422264-27.80046829 28.16086775 28.16086775 0 0 1 28.14222639 27.80046829h0.04349649l-0.00621379 0.31068919c0.01242757 0.02485513 0.01242757 0.04971027 0.01242757 0.0807792zM287.5270637 586.59420388c0 125.22016919 99.2527671 224.21195738 224.4729363 224.21195738s224.4729363-99.38325657 224.4729363-224.60342576-99.2527671-224.34244684-224.4729363-224.34244684-224.4729363 99.51374601-224.4729363 224.73391522zM512 873.83878315c-158.0103058 0-286.10124307-128.09093727-286.10124307-286.10124308S353.9896942 301.64251078999996 512 301.64251078999996c158.01651959 0 286.10124307 128.08472348 286.10124307 286.0950293S670.01651959 873.83878315 512 873.83878315z m0-510.05843532c-123.69157841 0-223.96340603 100.26561383-223.96340603 223.95719224S388.30842159 811.70094611 512 811.70094611s223.96340603-100.27182763 223.96340603-223.96340602-100.27182763-223.95719225-223.96340603-223.95719226z"  horiz-adv-x="1024" />

    
    <glyph glyph-name="youjian-o" unicode="&#59141;" d="M1023.13677967 676.365418L168.20271067 676.365418c-59.020535 0-106.867465-47.845517-106.867465-106.867465L61.33524567-18.26957200000004c0-59.020535 47.845517-106.867465 106.867465-106.867465l854.935481 0c59.020535 0 106.866052 47.845517 106.866052 106.867465L1130.00424467 569.497953C1130.00424467 628.5184879999999 1082.15731467 676.365418 1023.13677967 676.365418zM1076.56980567 8.44764699999996c0-44.265048-35.883785-80.150246-80.150246-80.150246L194.91851767-71.70259899999996c-44.265048 0-80.150246 35.883785-80.150246 80.150246L114.76827267 542.782146c0 44.265048 35.883785 80.150246 80.150246 80.150246l801.501043 0c44.265048 0 80.150246-35.883785 80.150246-80.150246L1076.56980567 8.44764699999996zM889.55350767 890.098935L301.78598267 890.098935c-59.020535 0-106.867465-47.845517-106.867465-106.867465l0-133.583272 53.433026 0L248.35154367 756.515663c0 44.265048 35.883785 80.150246 80.150246 80.150246l534.334499 0c44.265048 0 80.150246-35.883785 80.150246-80.150246l0-106.867465 53.433026 0L996.41956067 783.23147C996.41956067 842.253418 948.57404367 890.098935 889.55350767 890.098935zM328.50178967 783.23147l534.334499 0 0-53.433026-534.334499 0 0 53.433026ZM1033.41632767 622.930979L595.66974567 185.184397 157.92175067 622.930979 82.35620067 622.930979 595.66974567 109.617434 1108.98328967 622.930979ZM82.32088967-75.042957l75.566963 0 328.239316 326.616452-37.68885 37.68885L82.32088967-75.042957zM742.90117167 289.26375700000006L705.21232167 251.57349499999998l328.239316-326.616452 75.566963 0L742.90117167 289.26375700000006z"  horiz-adv-x="1174" />

    
    <glyph glyph-name="shangchuan" unicode="&#59638;" d="M957.81548907 295.15628267c-21.1330464 0-38.32568213-17.1980928-38.32568214-38.33659734l0-215.91597013L106.2784672 40.903715199999965 106.2784672 256.81968532999997c0 21.13850453-17.18826987 38.33659733-38.31476693 38.33659734-21.14505387 0-38.34642133-17.1980928-38.34642134-38.33659734l0-254.24056106c0-21.13850453 17.20245973-38.33550613 38.34642134-38.33550614l889.8517888 0c21.13850453 0 38.33550613 17.1970016 38.33550613 38.33550614L996.1509952 256.81968532999997C996.1509952 277.95818986999996 978.9550848 295.15628267 957.81548907 295.15628267zM354.7077408 536.42841707c10.28218027 0 19.94000853 4.02773333 27.1953856 11.34314453l0.21066453 0.212848 92.45666987 112.01791893 0-434.89913066c0-21.1647008 17.18826987-38.3835328 38.31476693-38.3835328 21.13850453 0 38.33550613 17.218832 38.33550614 38.3835328L551.22073387 661.22156267l93.22947093-113.0057504 0.4071392-0.4497088c7.26738453-7.31104533 16.9273952-11.3376864 27.20084267-11.3376864 10.27453973 0 19.93236693 4.02773333 27.18228693 11.33004586 14.92335147 14.96482987 14.99866667 39.2698528 0.22703787 54.33073707L542.61404693 792.27133973l-0.42569493 0.46717334c-7.11566187 7.10474667-16.70908907 11.01786987-27.01091733 11.01786986-0.59597333 0-1.19303893-0.01309867-1.78901227-0.03929493-10.94582933 0.47808853-21.3022336-3.466688-28.79774613-10.99058133l-0.21721387-0.21721387L327.298416 602.09138347c-14.78363627-15.06306773-14.70722987-39.3669984 0.2150304-54.31982187C334.76773227 540.4572416 344.42665173 536.42841707 354.7077408 536.42841707z"  horiz-adv-x="1024" />

    
    <glyph glyph-name="xuanze-xz" unicode="&#58908;" d="M821.5709375 695.205c-83.0653125 83.05125-193.49625 128.788125-310.9603125 128.788125-117.4790625 0-227.9203125-45.7415625-310.97625-128.788125-83.064375-83.056875-128.8171875-193.51125-128.8171875-311.0053125 0-117.4640625 45.7528125-227.895 128.818125-310.9696875 83.0559375-83.05125 193.49625-128.8228125 310.97625-128.8228125 117.463125 0 227.8940625 45.770625 310.9753125 128.8228125 83.06625 83.0746875 128.818125 193.505625 128.818125 310.9696875-0.0009375 117.4640625-45.7528125 227.949375-128.833125 311.0053125v0 0zM752.0909375 512.9953125l-299.5096875-299.5171875c-0.1921875-0.1884375-0.380625-0.3215625-0.5690625-0.5109375-5.713125-5.443125-13.06875-8.184375-20.4234375-8.184375-2.818125 0-5.6371875 0.3759375-8.3784375 1.1803125-0.0253125 0.0290625-0.0534375 0.0290625-0.0778125 0.0290625-1.2909375 0.4003125-2.52375 0.88125-3.763125 1.42125-3.1640625 1.4503125-6.1696875 3.4340625-8.7759375 6.0646875h-0.0140625l-141.740625 141.7321875c-11.595 11.595-11.595 30.38625 0 41.9821875 11.5940625 11.59875 30.38625 11.59875 41.9803125 0l120.7696875-120.7640625 278.5209375 278.5471875c11.595 11.5940625 30.38625 11.5940625 41.98125 0 11.565-11.5940625 11.565-30.38625 0-41.9803125v0 0zM752.0909375 512.9953125z"  horiz-adv-x="1024" />

    
    <glyph glyph-name="yingyong" unicode="&#58991;" d="M409.046 831.777H139.43c-40.382 0-73.123-32.739-73.123-73.123v-214.78c0-17.668 14.323-31.989 31.991-31.989 17.666 0 31.989 14.32 31.989 31.989V731.243c0 20.187 16.369 36.555 36.555 36.555h214.793c20.187 0 36.552-16.369 36.552-36.555V516.45c0-20.187-16.367-36.555-36.552-36.555h-219.36c-17.668 0-31.989-14.32-31.989-31.989 0-17.668 14.32-31.989 31.989-31.989h246.77c40.379 0 73.12 32.739 73.12 73.123V758.654c0.001 40.382-32.738 73.123-73.119 73.123z m479.834 0H619.264c-40.382 0-73.12-32.739-73.12-73.123V489.04c0-40.382 32.739-73.123 73.12-73.123H888.88c40.382 0 73.12 32.739 73.12 73.123V758.654c0 40.382-32.737 73.123-73.12 73.123z m9.143-315.327c0-20.187-16.369-36.555-36.552-36.555H646.675c-20.187 0-36.555 16.369-36.555 36.555V731.243c0 20.187 16.372 36.555 36.555 36.555h214.793c20.19 0 36.555-16.369 36.555-36.555V516.45zM409.046 351.941H139.43c-40.382 0-73.123-32.739-73.123-73.12v-269.616c0-40.382 32.739-73.123 73.123-73.123h269.614c40.382 0 73.123 32.739 73.123 73.123V278.82c-0.001 40.382-32.74 73.121-73.121 73.121z m9.141-315.325c0-20.19-16.367-36.555-36.552-36.555H166.841c-20.187 0-36.555 16.367-36.555 36.555V251.409c0 20.187 16.369 36.552 36.555 36.552h214.793c20.187 0 36.552-16.367 36.552-36.552v-214.793zM888.88 351.941H619.264c-40.382 0-73.12-32.739-73.12-73.12v-269.616c0-40.382 32.739-73.123 73.12-73.123H888.88c40.382 0 73.12 32.739 73.12 73.123V278.82c0 40.382-32.737 73.121-73.12 73.121z m9.143-315.325c0-20.19-16.369-36.555-36.552-36.555H646.675c-20.187 0-36.555 16.367-36.555 36.555V251.409c0 20.187 16.372 36.552 36.555 36.552h214.793c20.19 0 36.555-16.367 36.555-36.552v-214.793z"  horiz-adv-x="1024" />

    
    <glyph glyph-name="pifu" unicode="&#58959;" d="M697.04732-66.00708699999996l-31.090089 0.309038-347.034854-0.142239c-18.637476 0-39.903825 0.880043-56.257282 11.51321799-10.169617 6.37519801-23.608697 19.219737-29.782303 35.51486501-4.995781 13.344936-4.82898201 27.87895399-4.674463 41.937134l0.047072 69.982888V375.166821a88.98875401 88.98875401 0 0 0-11.95324-5.994528c-20.37402599-8.45660199-48.25298-4.11471401-68.352761 9.836019-7.12425801 5.042853-12.416797 10.514471-17.07898 15.33117401l-10.692527 10.52572699-37.20332 35.752272a2175.512139 2175.512139 0 0 0-20.374026 20.611434c-6.33938199 5.423523-12.143575 11.322883-17.935488 17.24577901l-6.220678 6.30356599c-1.77236601 1.74883001-3.699252 3.496637-5.590322 5.245468-8.230452 7.528464-18.470677 16.900925-24.953322 31.792077-3.544733 7.93266999-10.180873 22.76446999-7.064906 38.999222 5.54222601 29.44870601 23.597441 45.528939 38.10792299 58.446134 5.030573 4.448312 8.58758601 8.111748 12.15585501 11.75062501 4.10345799 4.175089 8.206916 8.349155 12.54778 12.23874199L228.054833 804.1245c7.70754199 7.86206201 18.17391799 18.530029 33.873482 24.596187l24.35878 5.935176s67.409273 4.47491799 89.274256 0c7.894807-1.6158 22.63348601-9.66922 28.794814-14.486946 9.21794201-7.08844199 15.771195-15.532765 21.551851-22.97834l1.558496-1.998517c4.662183-5.970992 15.807011-13.68979001 25.916253-17.935488 11.965519-4.959965 25.571399-8.111748 42.16328499-11.239995l19.75594901-1.248434c3.520173 0 8.646937 0.666172 14.45113 1.87879 32.041764 6.446829 44.957935 10.81123001 63.536059 25.619494 1.641383 1.320065 4.02057001 4.555759 6.32710199 7.68298301 4.11471401 5.61385799 9.25375799 12.607132 16.96027701 18.30490199l18.649756 12.048407c3.972475 1.558495 12.148691 3.969405 15.627932 4.57929501 6.83466201 1.197268 59.635215 0 66.152652 0 24.001647 0 39.01150201-2.104941 50.14405099-7.95722901 12.56006-6.779404 21.647019-15.842827 29.63904-23.834848l154.30843501-150.883429c6.30356599-6.732331 12.27455799-12.249999 18.220991-17.793248 7.06490601-6.576789 14.129812-13.16585799 20.647249-20.243043 1.664919-1.760087 3.544733-3.62762 5.399986-5.47059499 8.56302601-8.48013801 19.219737-19.04168201 25.381064-36.22811001l1.379417-6.553253c0.143263-2.295276 0.237407-4.590552 0.28550199-6.898107 3.900843-28.211529-11.584849-47.812959-17.50774499-55.293327l-2.117221-2.35462701-97.957009-95.59010199c-12.916171-14.605649-30.637788-34.61026199-57.87512901-39.653115-21.765723-4.03182599-38.677904 1.296529-51.73733799 9.122774v-282.760992c-0.047072-31.494295-0.190335-63.036685-0.35713401-94.459348l-0.49937299-4.828982c-3.42500601-16.437367-13.392008-32.707936-26.070772-42.460044-20.361747-15.464203-47.432289-16.749476-71.243601-16.749476z m-358.035396 49.0266l358.036419-0.30903901c9.800203 0 32.803103 0 41.675169 6.732332 2.544963 1.97395801 5.922896 6.94620201 7.445575 11.775184 0.143263 30.400381 0.28550199 60.895929 0.33257501 91.31984501V434.67002999l31.44722299 21.503756 26.451442-25.66656599c12.630668-12.405541 20.361747-18.95879401 33.70668301-16.473183 10.72834199 1.986237 21.099551 13.701047 30.25711699 24.037463l2.973728 3.354397 96.26753101 93.699032c5.780657 7.528464 7.42204 12.131295 6.47036499 17.78096899l-0.332575 3.544732c0 0.808412-0.023536 1.617847-0.047072 2.42625901-2.449795 5.007037-6.28003001 8.955976-12.607132 15.223727-2.235924 2.223644-4.495384 4.471848-6.755868 6.838755-5.875824 6.37519801-12.036128 12.084223-18.19745399 17.804505-6.80294 6.33938199-13.606903 12.691043-19.91046901 19.470447l-153.83362 150.39633501c-6.208399 6.184863-12.060687 12.036128-18.14935899 15.31889399-0.642636 0.332575-6.136767 2.62887399-27.23631801 2.628873-6.089695 0-12.27455799-0.166799-18.22098999-0.321318-5.89936-0.154519-11.56028999-0.29778201-16.69831101-0.297782H662.581344c-2.830465-0.880043-5.256724-1.24843401-7.016811-1.486864l-10.799973-6.03034301c-1.688455-1.593288-3.805676-4.495384-5.899361-7.31459299-3.758604-5.125741-8.420787-11.48968201-15.128558-16.877389-26.42790599-21.040199-47.337121-27.89123401-84.20786699-35.31225001-13.344936-2.771113-24.536836-3.568269-33.50406901-2.20010899l-17.899672 1.12973c-20.291139 3.76986-37.143968 7.671727-53.497424 14.45113099-14.355963 6.030343-33.75477801 17.804505-45.552476 32.90952701l-1.64138299 2.10494099c-4.579295 5.887081-8.51595401 10.965749-12.92845101 14.35596201-1.15326599 0.642636-2.984984 1.15326599-4.76963 1.783623a128.432091 128.432091 0 0 0-6.422269 2.48561099h-61.788252l-14.43884999-1.23717699c-9.753131-0.32131801-14.48694601-4.73381401-24.23905401-14.688538l-29.829376-29.27065-136.066979-133.029806c-4.329609-3.913123-7.695263-7.373944-11.073196-10.81123-4.376681-4.471848-8.789177-8.93244-13.46364-13.059434-14.320147-12.761652-21.349237-19.505239-23.716144-32.113395 0-1.79590201 2.331092-7.00555399 3.318582-9.22919801 2.794649-6.38645399 6.815219-10.216689 13.725606-16.543792 2.318812-2.117221 4.662183-4.270257 6.946202-6.51743699l6.826476-6.910386c4.983501-5.102205 9.931187-10.216689 15.414061-14.84305701l1.795903-1.66491899c6.743588-6.933923 13.546527-13.79621401 20.33821-20.60017701l48.823986-47.20613799c3.651157-3.78214 6.80294-7.04136999 10.014074-9.31311001 4.88833401-3.390213 16.02088201-7.07718601 21.860891-4.67446299 9.134031 3.746324 16.294105 10.965749 24.583908 19.327184 4.15052999 4.18634601 19.66078201 21.331841 19.66078201 21.331841l34.967396-20.213367-0.059352-412.092569c-0.095167-9.134031-0.213871-19.481703 1.55849499-24.21551801 1.332345-3.520173 6.208399-8.991792 10.39474501-11.60838599 5.970992-3.877307 24.09681399-3.877307 30.05552599-3.877307l20.088524 0.14224z"  horiz-adv-x="1024" />

    
    <glyph glyph-name="mima" unicode="&#58964;" d="M793.22 536.4h-31.26V606.36c0 145.56-103.74 231.12-251.1 231.12-147.9 0-248.76-88.02-248.76-231.12V536.4h-31.26c-68.88 0-124.98-56.94-124.98-126.84v-352.14c0-70.02 56.1-126.84 124.98-126.84h562.38c68.88 0 124.92 56.82 124.92 126.84V409.56c0 69.9-56.04 126.84-124.92 126.84zM324.5 606.36c0 108.06 72.84 167.7 186.3 167.7 112.32 0 188.64-57.72 188.64-167.7V536.4H324.5V606.36z m531.18-548.94a63 63 0 0 0-62.46-63.48H230.84a63 63 0 0 0-62.52 63.48V409.56a63 63 0 0 0 62.52 63.42h562.38a63 63 0 0 0 62.46-63.42v-352.14zM512 368.82000000000005A63 63 0 0 1 449.48 305.4c0-23.58 12.6-43.98 31.26-54.96v-97.98c0-17.52 13.92-31.62 31.2-31.62s31.26 14.1 31.26 31.62v97.98c18.72 10.98 31.26 31.38 31.26 54.96A62.88 62.88 0 0 1 512 368.82000000000005z"  horiz-adv-x="1024" />

    
    <glyph glyph-name="zan" unicode="&#58890;" d="M84.01689031-12.02855999999997c-18.22157344 0-33.01405031 14.80537406-33.01404937 32.9458725V482.89289813c0 18.14049937 14.79431906 32.94771563 33.01404937 32.94771562 18.12944345 0 33.01220719-14.71324406 33.01220719-32.94771563v-461.97558562c-0.08844562-18.14049937-14.79431906-32.94587344-33.01220719-32.9458725m792.05896407 527.86917375H680.70019156c14.24890594 33.03616125 30.57811875 118.33243781 21.10341656 195.87316781-7.66341655 62.01120937-43.74725531 109.39762031-96.69466406 127.36491282-39.2383875 13.26863719-80.55155437 6.85635281-102.91715906-15.97543125-26.52253312-26.99055657-38.96752406-78.17642999-52.22694845-132.24046125-8.66026875-35.38180406-17.59324406-72.02948156-28.68391499-90.90149625-32.0208825-54.51362719-99.22641094-79.42572-112.75485656-84.02671875H215.98095969c-18.13312875 0-33.0158925-14.72061375-33.0158925-32.95324313v-461.968215c0-18.14786906 14.79800345-32.94218813 33.0158925-32.94218812h89.30026875c27.51201563-14.89566188 130.25044125-65.98572 249.2241075-65.98572h222.61681405c36.71032594 0 99.85289813 14.16967406 123.48990376 53.43938625 23.81205375 39.53136281 74.23140094 400.58165063 74.23140094 440.66763843-0.26902125 55.1419575-54.20959687 99.64836844-98.76760032 99.64836844m-32.20514436-506.47093969c-4.95846469-8.304645-37.51923187-21.39454875-66.83516345-21.39454968H554.41689031c-117.89205375 0-221.80237969 66.0723225-222.88399219 66.0723225h-82.62449156V450.0373125h65.93781188c2.70310969 0 5.13904031 0.89735156 7.66710187 1.44092156 0.53988469 0.18057563 1.08345469 0 1.53120938 0.18057563 0.18057563 0.09213094 0.90472125 0.27270656 1.7173125 0.54725531 0.90103687 0.26902125 1.711785 0.5380425 2.61282187 0.89182406 20.11577719 6.5983875 105.71792719 38.45896313 149.73604595 113.37397313 15.96806156 27.1748175 25.61596969 66.80383875 35.8995778 108.68268656 9.56130563 38.99700562 21.37612311 87.56084438 35.17543219 101.63654531 3.16376156 2.70863719 18.5808825 6.23355094 37.88775375-1.34879063 15.78564281-6.32015344 43.21105594-23.92261031 49.16084531-71.94287905 12.99040313-105.70134375-32.4723225-206.34103687-32.83163156-207.34157437-4.78157344-10.19700563-3.87869437-21.83861812 2.16322406-31.41097876 6.04007719-9.47470219 16.59454875-14.79431906 27.68890594-14.79431812h242.64967406c8.83715906 0 32.55708281-15.52951969 32.55708188-33.85059563 0.08291719-43.87623844-50.78786906-375.41343562-64.59086345-406.73228344m0 0"  horiz-adv-x="1024" />

    
    <glyph glyph-name="zan-xz" unicode="&#58914;" d="M83.0937425-12.02855999999997c-18.22157344 0-33.01405031 14.80537406-33.01404938 32.9458725V482.89289813c0 18.14049937 14.79431906 32.94771563 33.01404938 32.94771562 18.12944345 0 33.01220719-14.71324406 33.01220719-32.94771563v-461.97558562c-0.08844562-18.14049937-14.79431906-32.94587344-33.01220719-32.9458725m792.05896406 527.86917375H679.77704375c14.24890594 33.03616125 30.57811875 118.33243781 21.10341656 195.87316781-7.66341655 62.01120937-43.74725531 109.39762031-96.69466406 127.36491282-39.2383875 13.26863719-80.55155437 6.85635281-102.91715906-15.97543125-26.52253312-26.99055657-38.96752406-78.17642999-52.22694844-132.24046125-8.66026875-35.38180406-17.59324406-72.02948156-28.683915-90.90149625-32.0208825-54.51362719-99.22641094-79.42572-112.75485656-84.02671875H215.05781187c-18.13312875 0-33.0158925-14.72061375-33.0158925-32.95324313v-461.968215c0-18.14786906 14.79800345-32.94218813 33.0158925-32.94218812h89.30026875c27.51201563-14.89566188 130.25044125-65.98572 249.2241075-65.98572h222.61681407c36.71032594 0 99.85289813 14.16967406 123.48990375 53.43938625 23.81205375 39.53136281 74.23140094 400.58165063 74.23140093 440.66763843-0.26902125 55.1419575-54.20959687 99.64836844-98.76760031 99.64836844"  horiz-adv-x="1024" />

    
    <glyph glyph-name="shuaxin" unicode="&#59066;" d="M512-64c-234.394624 0-425.10336 190.708736-425.10336 425.10336S277.605376 786.20672 512 786.20672c116.878336 0 225.772544-46.432256 306.69312-130.737152 9.644032-10.027008 44.068864-47.517696 52.627456-58.438656 11.113472-14.242816 8.558592-34.807808-5.684224-45.92128-14.306304-11.113472-34.87232-8.49408-45.92128 5.684224-7.791616 10.027008-39.406592 44.196864-48.156672 53.32992C703.028224 681.527296 610.8672 720.805888 512 720.805888c-198.308864 0-359.702528-161.393664-359.702528-359.702528S313.691136 1.4008320000000367 512 1.4008320000000367 871.702528 162.79449599999998 871.702528 361.10335999999995c0 18.074624 14.625792 32.700416 32.700416 32.700416s32.700416-14.625792 32.700416-32.700416c0-234.394624-190.708736-425.10336-425.10336-425.10336zM838.683648 524.604416H623.194112c-18.074624 0-32.700416 14.625792-32.700416 32.700416s14.625792 32.700416 32.700416 32.700416h209.294336V799.299584c0 18.074624 14.625792 32.700416 32.700416 32.700416s32.700416-14.625792 32.700416-32.700416v-215.489536c-0.001024-32.635904-26.569728-59.205632-59.205632-59.205632z"  horiz-adv-x="1024" />

    
    <glyph glyph-name="jian-circle-o" unicode="&#58891;" d="M784.02000001 357.904H244.418c-13.614 0-24.66000001 11.89-24.66 26.538 0 14.65199999 11.046 26.542 24.66 26.542H784.02000001c13.632 0 24.656-11.89 24.65599998-26.542 0-14.648-11.022-26.538-24.656-26.538z m-2e-8 0M514.584 841.968C261.672 841.968 56.616 636.9259999999999 56.616 384c0-252.916 205.056-457.97 457.968-457.97S972.554 131.086 972.554 384c0 252.926-205.056 457.968-457.97 457.968z m0-873.004c-229.228 0-415.036 185.82-415.036 415.036 0 229.212 185.806 415.034 415.036 415.034 229.226 0 415.036-185.822 415.036-415.034 0-229.214-185.808-415.036-415.036-415.036z m0 0"  horiz-adv-x="1024" />

    
    <glyph glyph-name="jiantou-right" unicode="&#58892;" d="M770.25200001 407.91L288.47 875.814c-14.018 13.58000001-36.682 13.58000001-50.7 0-14.022-13.614-14.022-35.654 0-49.27400001l458.256-445.05999999-450.688-437.718c-13.626-13.19599999-13.626-34.61199999 0-47.808 13.59-13.27 35.64-13.27 49.26600001 0l468.08199999 454.534c1.832 1.776 2.72399999 1.936 4.056 3.99 1.11 0.8 2.47600001 3.214 3.51000001 4.226 13.99 13.578 13.99 35.624 0 49.20399999v0.00200001z m0 0"  horiz-adv-x="1024" />

    
    <glyph glyph-name="jiantou-left" unicode="&#58893;" d="M213.74800001 407.906c-13.99-13.58000001-13.99-35.626-2e-8-49.204 1.034-1.01199999 2.4-3.426 3.51000001-4.22600001 1.33199999-2.054 2.224-2.214 4.056-3.98999999l468.08199999-454.534c13.626-13.27 35.67599999-13.27 49.26600001 0 13.626 13.198 13.626 34.614 0 47.808L287.97199999 381.48 746.22800001 826.54000001c14.022 13.62000001 14.022 35.66000001 0 49.27399999-14.018 13.58000001-36.682 13.58000001-50.70000001 0l-481.78000001-467.904v-0.004z m-2e-8 0.004"  horiz-adv-x="1024" />

    
    <glyph glyph-name="excel" unicode="&#58903;" d="M466.508 111.844L508 173.906l92.168-137.812h116.21l-151.402 223.016 134.192 200.592h-111.95L508 343.016l-79.218 116.686h-111.948l134.188-200.62-151.398-223.02h116.982zM893.294 684.924l-138.464 138.454C724.772 853.542 665.166 878.2 622.53 878.2H157.328c-42.636 0-77.506-34.886-77.506-77.524V-36.66c0-42.668 34.872-77.54 77.508-77.54h713.314c42.636 0 77.54 34.872 77.54 77.54V552.564c-0.006 42.65-24.736 102.184-54.89 132.36z m-28.78-60.822h-172.446V796.49l172.446-172.388z m29.62-660.762c0-8.426-15.164-23.528-23.492-23.528H149.328c-8.364 0-15.496 15.098-15.496 23.528V800.676c0 8.41 7.132 23.496 15.496 23.496h473.202c4.722 0 9.93-0.542 15.496-1.626v-254.47h254.426c1.082-5.582 1.684-10.848 1.684-15.51V-36.66h-0.002z"  horiz-adv-x="1024" />

    
    <glyph glyph-name="rar" unicode="&#58894;" d="M427.044 761.562V833.772h-85.666v-57.766H270V718.42l71.378-0.162v-43.362H270v-72.212h71.378v-43.332H270v-72.212h71.378v-43.332H270V243.48c0-16.988 14.062-30.762 31.416-30.762h94.224c17.348 0 31.414 13.774 31.414 30.762V501.588h-71.378V544.92h71.378v72.21h-71.378v43.324h71.378V732.666h-71.378V761.562h71.368zM398.494 328.28v-43.336H298.56V328.28h99.934zM891.294 686.924l-138.464 138.454C722.772 855.542 663.166 880.2 620.53 880.2H155.328c-42.636 0-77.506-34.886-77.506-77.524V-34.66c0-42.668 34.872-77.54 77.508-77.54h713.314c42.636 0 77.54 34.872 77.54 77.54V554.564c-0.006 42.65-24.736 102.184-54.89 132.36z m-28.78-60.822h-172.446V798.49l172.446-172.388z m29.62-660.762c0-8.426-15.164-23.528-23.492-23.528H147.328c-8.364 0-15.496 15.098-15.496 23.528V802.676c0 8.41 7.132 23.496 15.496 23.496h473.202c4.722 0 9.93-0.542 15.496-1.626v-254.47h254.426c1.082-5.582 1.684-10.848 1.684-15.51V-34.66h-0.002z"  horiz-adv-x="1024" />

    
    <glyph glyph-name="other" unicode="&#58895;" d="M893.294 684.924l-138.464 138.454C724.772 853.542 665.166 878.2 622.53 878.2H157.328c-42.636 0-77.506-34.886-77.506-77.524V-36.66c0-42.668 34.872-77.54 77.508-77.54h713.314c42.636 0 77.54 34.872 77.54 77.54V552.564c-0.006 42.65-24.736 102.184-54.89 132.36z m-28.78-60.822h-172.446V796.49l172.446-172.388z m29.62-660.762c0-8.426-15.164-23.528-23.492-23.528H149.328c-8.364 0-15.496 15.098-15.496 23.528V800.676c0 8.41 7.132 23.496 15.496 23.496h473.202c4.722 0 9.93-0.542 15.496-1.626v-254.47h254.426c1.082-5.582 1.684-10.848 1.684-15.51V-36.66h-0.002zM473.39 236.292h-178.174c-10.928 0-19.796-8.87-19.796-19.798v-178.172c0-10.928 8.868-19.798 19.796-19.798h178.174c10.928 0 19.798 8.872 19.798 19.798v178.172a19.788 19.788 0 0 1-19.798 19.798z m-11.878-186.092h-154.418v154.446h154.418V50.2z m179.998 225.686c60.156 0 108.88 48.754 108.88 108.882 0 60.13-48.724 108.884-108.88 108.884-60.132 0-108.886-48.754-108.886-108.884 0-60.154 48.752-108.882 108.886-108.882z m0 186.092c42.574 0 77.234-34.632 77.234-77.208s-34.634-77.208-77.234-77.208c-42.552 0-77.21 34.63-77.21 77.208-0.002 42.55 34.658 77.208 77.21 77.208z m89.084-225.686h-178.172c-10.93 0-19.798-8.87-19.798-19.798v-178.172c0-10.928 8.87-19.798 19.798-19.798h178.172c10.93 0 19.798 8.872 19.798 19.798v178.172c0 10.93-8.868 19.798-19.798 19.798z m-11.85-186.092h-154.446v154.446h154.446V50.2zM473.39 493.654h-178.174c-10.928 0-19.796-8.87-19.796-19.798v-178.172c0-10.928 8.868-19.796 19.796-19.796h178.174c10.928 0 19.798 8.87 19.798 19.796v178.172a19.788 19.788 0 0 1-19.798 19.798z m-11.878-186.094h-154.418v154.418h154.418v-154.418z"  horiz-adv-x="1024" />

    
    <glyph glyph-name="powerpoint" unicode="&#58897;" d="M464.274 183.928v-145.656h-95.06V461.606c2.376 0.4 4.144 0.974 5.904 0.96 58.336-0.524 114.712 1.954 173-0.096 32.074-1.128 64.77-12.374 90.078-33.678 32.836-27.634 41.096-65.14 40.484-105.73-1.162-76.772-57.622-123.458-121.18-134.12-27.08-4.54-55.094-3.526-82.686-4.994-2.904-0.154-5.826-0.02-10.54-0.02z m0.824 203.692v-130.066c18.74 0 36.91-1.638 54.668 0.352 33.626 3.762 51.08 19.932 56.996 49.316 8.686 43.166-12.794 75.214-55.4 80.052-18.164 2.062-36.76 0.346-56.264 0.346zM891.292 686.924l-138.464 138.454C722.77 855.542 663.164 880.2 620.528 880.2H155.326C112.69 880.2 77.82 845.312 77.82 802.676V-34.66c0-42.668 34.872-77.54 77.508-77.54H868.64c42.636 0 77.54 34.872 77.54 77.54V554.564c-0.004 42.65-24.734 102.184-54.888 132.36z m-28.78-60.822h-172.446V798.49l172.446-172.388z m29.62-660.762c0-8.426-15.164-23.528-23.492-23.528H147.326c-8.364 0-15.496 15.098-15.496 23.528V802.676c0 8.41 7.132 23.496 15.496 23.496h473.202c4.722 0 9.93-0.542 15.496-1.626v-254.47h254.426c1.082-5.582 1.684-10.848 1.684-15.51V-34.66h-0.002z"  horiz-adv-x="1024" />

    
    <glyph glyph-name="audio" unicode="&#58898;" d="M891.294 686.924l-138.464 138.454C722.772 855.542 663.166 880.2 620.53 880.2H155.328c-42.636 0-77.506-34.886-77.506-77.524V-34.66c0-42.668 34.872-77.54 77.508-77.54h713.314c42.636 0 77.54 34.872 77.54 77.54V554.564c-0.006 42.65-24.736 102.184-54.89 132.36z m-28.78-60.822h-172.446V798.49l172.446-172.388z m29.62-660.762c0-8.426-15.164-23.528-23.492-23.528H147.328c-8.364 0-15.496 15.098-15.496 23.528V802.676c0 8.41 7.132 23.496 15.496 23.496h473.202c4.722 0 9.93-0.542 15.496-1.626v-254.47h254.426c1.082-5.582 1.684-10.848 1.684-15.51V-34.66h-0.002zM512.778 579.462zM497.888 218.584c-41.71 0-77.982 34.458-77.982 76.172v152.336c0 41.712 34.458 76.172 76.17 76.172 41.714 0 76.166-34.46 76.166-76.172v-152.336c3.634-41.714-30.828-76.172-74.354-76.172zM497.888 131.534c-87.05 0-159.592 70.732-159.592 159.596v107c0 10.88 7.252 18.136 18.136 18.136 10.88 0 18.134-7.254 18.134-18.136v-107c0-67.104 54.408-123.32 123.322-123.32 68.918 0 123.326 54.404 123.326 123.32v107c0 10.88 7.252 18.136 18.134 18.136 10.876 0 18.132-7.254 18.132-18.136v-107c0.002-88.864-72.538-159.596-159.592-159.596zM506.958 57.178c-10.88 0-19.95 9.068-19.95 19.952v63.472c0 10.882 9.07 19.952 19.95 19.952 10.882 0 19.952-9.068 19.952-19.952v-63.472c-0.002-10.884-9.07-19.952-19.952-19.952zM601.264 55.364c0-10.882-9.068-19.952-19.948-19.952h-143.274c-10.882 0-19.95 9.068-19.95 19.952 0 10.882 9.066 19.952 19.95 19.952h143.274c10.88-0.002 19.948-9.07 19.948-19.952z"  horiz-adv-x="1024" />

    
    <glyph glyph-name="text" unicode="&#58899;" d="M240.916 643.922h286.28v-77.9h-286.28zM240.916 475.248h510.17v-73.9H240.916zM240.916 310.572h510.17v-73.898H240.916zM240.916 145.9h510.17V72H240.916zM891.294 684.924l-138.464 138.454C722.772 853.542 663.166 878.2 620.53 878.2H155.328c-42.636 0-77.506-34.886-77.506-77.524V-36.66c0-42.668 34.872-77.54 77.508-77.54h713.314c42.636 0 77.54 34.872 77.54 77.54V552.564c-0.006 42.65-24.736 102.184-54.89 132.36z m-28.78-60.822h-172.446V796.49l172.446-172.388z m29.62-660.762c0-8.426-15.164-23.528-23.492-23.528H147.328c-8.364 0-15.496 15.098-15.496 23.528V800.676c0 8.41 7.132 23.496 15.496 23.496h473.202c4.722 0 9.93-0.542 15.496-1.626v-254.47h254.426c1.082-5.582 1.684-10.848 1.684-15.51V-36.66h-0.002z"  horiz-adv-x="1024" />

    
    <glyph glyph-name="video" unicode="&#58900;" d="M891.294 686.924l-138.464 138.454C722.772 855.542 663.166 880.2 620.53 880.2H155.328c-42.636 0-77.506-34.886-77.506-77.524V-34.66c0-42.668 34.872-77.54 77.508-77.54h713.314c42.636 0 77.54 34.872 77.54 77.54V554.564c-0.006 42.65-24.736 102.184-54.89 132.36z m-28.78-60.822h-172.446V798.49l172.446-172.388z m29.62-660.762c0-8.426-15.164-23.528-23.492-23.528H147.328c-8.364 0-15.496 15.098-15.496 23.528V802.676c0 8.41 7.132 23.496 15.496 23.496h473.202c4.722 0 9.93-0.542 15.496-1.626v-254.47h254.426c1.082-5.582 1.684-10.848 1.684-15.51V-34.66h-0.002zM645.77 415.888L443.92 532.422c-12.986 7.498-25.866 11.302-38.27 11.302-27.578 0-55.41-20.216-55.41-65.388v-233.072c0-45.168 27.834-65.386 55.41-65.386 12.406 0 25.286 3.802 38.27 11.3l201.84 116.55c23.044 13.286 36.262 33.002 36.262 54.072 0.01 21.074-13.208 40.79-36.252 54.088z m-20.144-73.274l-201.848-116.55c-8.444-4.886-14.518-5.9-18.126-5.9-13.16 0-15.126 15.722-15.126 25.104V478.338c0 9.38 1.966 25.102 15.126 25.102 3.61 0 9.682-1.018 18.126-5.902l201.848-116.534c10.098-5.828 16.118-12.998 16.118-19.204-0.002-6.19-6.022-13.36-16.118-19.186zM164.266 754.548h81.66v-81.654h-81.66V754.548zM164.266 588.394h81.66v-81.654h-81.66v81.654zM164.266 422.242h81.66v-81.654h-81.66v81.654zM164.266 256.088h81.66v-81.654h-81.66v81.654zM164.266 89.936h81.66v-81.654h-81.66v81.654zM778.522 422.242h81.66v-81.654h-81.66v81.654zM778.522 256.088h81.66v-81.654h-81.66v81.654zM778.522 89.936h81.66v-81.654h-81.66v81.654z"  horiz-adv-x="1024" />

    
    <glyph glyph-name="word" unicode="&#58901;" d="M655.842 386.068l-44.18-186.95L554.2 462h-92.27l-66.752-262.882L345.08 462h-96.414l97.888-423.164h94.25l66.09 250.304 59.026-250.304h86.89L765.122 462h-91.628zM891.292 686.924l-138.464 138.454C722.77 855.542 663.164 880.2 620.528 880.2H155.326C112.69 880.2 77.82 845.312 77.82 802.676V-34.66c0-42.668 34.872-77.54 77.508-77.54H868.64c42.636 0 77.54 34.872 77.54 77.54V554.564c-0.004 42.65-24.734 102.184-54.888 132.36z m-28.78-60.822h-172.446V798.49l172.446-172.388z m29.62-660.762c0-8.426-15.164-23.528-23.492-23.528H147.326c-8.364 0-15.496 15.098-15.496 23.528V802.676c0 8.41 7.132 23.496 15.496 23.496h473.202c4.722 0 9.93-0.542 15.496-1.626v-254.47h254.426c1.082-5.582 1.684-10.848 1.684-15.51V-34.66h-0.002z"  horiz-adv-x="1024" />

    
    <glyph glyph-name="picture" unicode="&#58902;" d="M893.294 684.924l-138.464 138.454C724.772 853.542 665.166 878.2 622.53 878.2H157.328c-42.636 0-77.506-34.886-77.506-77.524V-36.66c0-42.668 34.872-77.54 77.508-77.54h713.314c42.636 0 77.54 34.872 77.54 77.54V552.564c-0.006 42.65-24.736 102.184-54.89 132.36z m-28.78-60.822h-172.446V796.49l172.446-172.388z m29.62-660.762c0-8.426-15.164-23.528-23.492-23.528H149.328c-8.364 0-15.496 15.098-15.496 23.528V800.676c0 8.41 7.132 23.496 15.496 23.496h473.202c4.722 0 9.93-0.542 15.496-1.626v-254.47h254.426c1.082-5.582 1.684-10.848 1.684-15.51V-36.66h-0.002zM366.704 358.358c50.498 0 91.62 41.122 91.62 91.674 0 50.496-41.122 91.672-91.62 91.672-50.606 0-91.726-41.122-91.726-91.672 0-50.554 41.176-91.674 91.726-91.674z m0 130.436c21.384 0 38.708-17.436 38.708-38.764 0-21.384-17.436-38.764-38.708-38.764-21.382 0-38.874 17.434-38.874 38.764 0.056 21.384 17.492 38.764 38.874 38.764zM294.662 166.348l198.368-226.934 72.482-0.712-237.846 263.506-33.004-35.86zM588.652 261.092l284.446-325.298 67.222-0.328-316.964 360.716-34.704-35.09zM327.666 202.208L83.68-61.958h66.014l211.144 227.156-33.172 37.01zM622.644 296.182l-222.22-214.652 34.214-35.474L652.8 256.872l-30.156 39.31z"  horiz-adv-x="1024" />

    
    <glyph glyph-name="nan" unicode="&#58987;" d="M939.42572011 772.80863701c-1.29904013 19.79654502-18.27466435 36.90172705-37.9053747 38.21631504l-307.83109395 11.10230332c-19.62898242 1.30940508-34.49193838-13.66928964-33.18944326-33.46065264 1.30249512-19.79481797 18.27293643-36.90172705 37.90882881-38.21977002l220.15796572-7.93416445-169.4642994-170.83934736c-60.89942461 51.56084443-139.31861836 82.69289824-224.98618008 82.69289824-193.6502877 0-350.63550879-158.61938555-350.6355088-354.28560469 0-195.66967412 156.98522109-354.28733174 350.6355088-354.28733262 193.6554706 0 350.63550879 158.61765849 350.6355079 354.28733262 0 81.71689043-27.65470254 156.7554706-73.65834931 216.69788848l170.39366631 171.77389629 7.85124755-221.30671817c1.30422305-19.79481797 18.27466435-36.90863701 37.90537471-38.22149707 19.63416533-1.31286006 34.49712129 13.66583467 33.19289824 33.46238057l-11.01074853 310.32207246zM424.11785029 18.84011542999997c-153.06218789 0-277.5886752 126.16237969-277.58867519 281.23531611 0 155.07811933 124.52476026 281.24222607 277.58867519 281.24222695s277.58694815-126.16410761 277.58694815-281.24222695c0-155.07293643-124.52476026-281.235317-277.58694815-281.23531611z m0 0"  horiz-adv-x="1024" />

    
    <glyph glyph-name="jian-square" unicode="&#59030;" d="M979.8592-88.53333333h-945.06666667v945.06666666h945.06666667v-945.06666666z m-158.16106667 475.67573333c0 14.1376-11.4624 25.6-25.6 25.6H218.54933333c-14.1376 0-25.6-11.4624-25.6-25.6v-6.28266667c0-14.1376 11.4624-25.6 25.6-25.6h577.5488c14.1376 0 25.6 11.4624 25.6 25.6v6.28266667z"  horiz-adv-x="1024" />

    
    <glyph glyph-name="sanjiaojiantou-left" unicode="&#58939;" d="M734.37008237-37.875v843.75L312.52796885 384.03515406l421.84211352-421.91015406z"  horiz-adv-x="1024" />

    
    <glyph glyph-name="sanjiaojiantou-right" unicode="&#58941;" d="M305.86130218-37.875v843.75l421.84211352-421.83984594L305.86130218-37.875z"  horiz-adv-x="1024" />

    
    <glyph glyph-name="lianxiren" unicode="&#58904;" d="M801.175 455.633h201.217v-39.309h-201.217zM801.175 219.783h201.217v-39.309h-201.217zM701.666 337.706h300.726v-39.309h-300.726zM458.29-59.313h-420.471c-9.735 0-17.628 8.102-17.628 18.094v21.744c-0.299 6.065-0.861 39.295 19.804 75.786 12.933 22.837 31.524 42.448 55.251 58.283 28.753 19.191 65.17 32.813 108.241 40.498 0.22 0.039 0.442 0.075 0.662 0.104 0.326 0.045 33.472 4.703 67.142 13.811 58.358 15.794 63.464 29.753 63.502 29.889 0.633 2.515 1.709 4.716 3.152 6.625-1.19-0.048-0.005 9.785-2.271 36.126-5.755 66.908-39.716 106.451-67.004 138.222-8.609 10.022-16.738 19.485-22.994 28.764-27.005 40.038-29.511 85.568-29.604 87.484-0.015 0.27-0.024 0.586-0.024 0.904 0 18.174 8.829 26.535 16.618 33.91l0.409 0.389c0.256 0.242 0.417 0.423 0.513 0.537 0.086 1.299-0.535 4.591-0.955 6.814-1.738 8.576-2.846 18.537-3.069 28.717-4.171 11.557-4.637 69.827 1.489 107.226 2.272 49.176 43.586 86.818 45.359 88.41 0.069 0.063 0.134 0.122 0.204 0.179 5.932 5.167 11.948 10.81 15.771 17.070 0.46 0.749 0.78 1.331 1.006 1.777-0.287 0.763-0.7 1.735-1.032 2.526-2.298 5.438-5.771 13.654-3.795 24.216 1.191 6.376 5.731 17.77 22.74 22.428 6.846 1.875 14.165 2.256 19.509 2.537l1.057 0.057c21.111 1.142 43.631 2.107 66.413 0.313 164.752-12.964 221.504-76.149 223.841-78.832 0.13-0.151 0.261-0.303 0.385-0.458 13.188-16.217 22.958-36.422 29.036-60.054 1.901-7.374 3.121-13.566 3.831-19.427 5.755-34.323 4.794-69.587 3.563-93.168-0.692-13.233-2.127-27.125-4.526-43.718-0.651-4.505 0.067-5.387 0.336-5.717 0.715-0.879 1.59-1.832 2.516-2.84 3.644-3.966 8.63-9.399 11.282-18.116 1.329-4.357 1.95-9.057 1.95-14.776 0-0.299-0.006-0.601-0.022-0.902-0.094-1.918-2.598-47.446-29.604-87.484-6.262-9.281-14.387-18.745-22.996-28.764-27.288-31.772-61.251-71.314-67.002-138.224-2.266-26.343-1.081-36.172-0.603-38.786 0.639-1.248 1.14-2.581 1.484-3.962 0.035-0.136 5.159-14.141 63.785-29.965 33.666-9.084 66.529-13.689 66.859-13.735 0.287-0.037 0.572-0.088 0.857-0.142 43.464-8.273 80.106-22.249 108.91-41.538 23.809-15.944 42.365-35.522 55.151-58.177 20.272-35.932 19.448-68.437 19.041-74.949v-21.612c0-9.992-7.893-18.094-17.63-18.094M812.879-19.548v8.050c0 0.654 0.008 1.048 0.079 1.678 0.090 1.433 5.366 26.872-10.543 55.137-9.58 17.011-21.575 27.913-39.519 40.217-23.108 15.836-68.557 27.477-104.218 34.604-4.112 0.613-36.498 5.279-68.427 14.285-62.629 17.667-75.959 39.307-80.585 53.576-3.544 7.365-5.529 23.98-2.642 59.034 6.356 77.177 47.672 122.624 74.972 155.807 7.744 9.409 14.43 17.536 19.204 24.924 18.691 28.941 21.632 62.885 21.919 66.967-0.033 2.138-0.232 3.060-0.32 3.367-0.22 0.761-1.68 2.418-3.090 4.021-1.107 1.26-4.324 4.652-5.625 6.317-7.036 9.014-7.581 18.027-5.702 31.597 2.099 15.14 3.349 27.701 3.941 39.537 1.728 34.621 0.808 60.465-2.98 83.791-0.156 0.924-0.251 1.997-0.264 3.090-0.333 2.052-1.216 6.716-2.647 12.518-4.418 17.909-11.266 32.976-20.366 44.797-1.515 1.657-13.619 14.348-40.614 28.147-48.576 24.835-106.913 34.002-147.297 37.322-19.417 1.594-39.34 0.696-58.081-0.366l-1.044-0.055c-1.563-0.088-4.188-0.232-6.686-0.499 2.166-5.541 4.827-13.88 2.032-23.845-1.050-3.734-2.659-7.388-5.065-11.502-5.957-10.181-14.096-18.245-21.294-24.8-1.413-1.368-30.293-29.739-31.29-62.352-0.035-1.080-0.154-2.107-0.352-3.107-5.171-31.888-4.816-85.457 0.91-118.761 0.124-0.723 0.256-1.447 0.383-2.164 1.755-9.684 4.69-25.879-9.627-40.030l-0.385-0.379c-1.849-1.828-4.377-4.328-4.794-5.189 0.004 0-0.12-0.407-0.145-1.504 0.291-4.074 3.235-37.996 21.921-66.922 4.77-7.386 11.457-15.515 19.2-24.924 27.298-33.181 68.618-78.628 74.972-155.805 2.887-35.054 0.902-51.67-2.642-59.034-4.625-14.269-17.954-35.909-80.587-53.576-32.186-9.076-64.817-13.752-68.52-14.297-35.256-6.598-66.755-13.947-89.735-29.657-17.868-12.213-37.672-27.123-47.361-44.323-16.182-28.721-17.129-54.885-17.064-56.283 0.045-0.517 0.049-0.822 0.049-1.36v-8.050h383.862M199.263 212.391z"  horiz-adv-x="1024" />

    
    <glyph glyph-name="lianxiren-xz" unicode="&#58945;" d="M518.989-57.883h-481.266c-9.735 0-17.628 8.076-17.628 18.039v21.673c-0.299 6.046-0.861 39.171 19.804 75.54 12.933 22.768 31.524 42.31 55.251 58.101 28.753 19.128 65.17 32.711 108.241 40.368 0.22 0.039 0.442 0.073 0.662 0.104 0.326 0.045 33.472 4.688 67.142 13.77 58.358 15.739 63.464 29.655 63.502 29.792 0.636 2.512 1.714 4.709 3.159 6.614-1.197-0.061-0.012 9.744-2.278 36.001-5.755 66.692-39.716 106.107-67.004 137.778-8.609 9.992-16.738 19.425-22.994 28.674-27.005 39.91-29.511 85.293-29.604 87.205-0.015 0.269-0.024 0.585-0.024 0.902 0 18.116 8.829 26.449 16.618 33.802l0.409 0.387c0.256 0.242 0.417 0.423 0.513 0.537 0.086 1.293-0.535 4.576-0.955 6.793-0.161 0.845-0.322 1.688-0.472 2.541-6.769 37.605-7.235 95.688-1.109 132.967 2.272 49.018 43.586 86.541 45.359 88.129 0.069 0.061 0.134 0.12 0.204 0.179 5.932 5.149 11.948 10.775 15.771 17.015 0.46 0.747 0.78 1.327 1.006 1.771-0.287 0.761-0.7 1.732-1.032 2.518-2.298 5.421-5.771 13.611-3.795 24.14 1.191 6.354 5.731 17.713 22.74 22.355 6.846 1.871 14.165 2.25 19.509 2.53l1.057 0.057c21.111 1.138 43.631 2.099 66.413 0.313 164.752-12.923 221.504-75.906 223.841-78.581 0.13-0.149 0.261-0.303 0.385-0.456 13.188-16.166 22.958-36.306 29.036-59.864 1.901-7.351 3.121-13.522 3.831-19.364 5.755-34.213 4.794-69.365 3.563-92.87-0.692-13.19-2.127-27.037-4.526-43.578-0.651-4.491 0.067-5.368 0.336-5.698 0.715-0.877 1.59-1.828 2.516-2.832 3.644-3.953 8.63-9.369 11.282-18.059 1.329-4.344 1.95-9.029 1.95-14.729 0-0.299-0.006-0.599-0.022-0.9-0.094-1.914-2.598-47.295-29.604-87.205-6.262-9.251-14.387-18.686-22.996-28.674-27.288-31.665-61.251-71.086-67.002-137.778-2.266-26.26-1.081-36.062-0.603-38.664 0.639-1.244 1.14-2.577 1.484-3.951 0.035-0.138 5.159-14.096 63.785-29.869 33.666-9.059 66.529-13.646 66.859-13.693 0.287-0.039 0.572-0.088 0.857-0.138 43.464-8.249 80.106-22.18 108.91-41.408 23.809-15.893 42.365-35.406 55.151-57.989 20.272-35.816 19.448-68.219 19.041-74.707v-21.547c0-9.961-7.893-18.035-17.63-18.035M701.666 342.466h300.726v-47.171h-300.726zM799.864 225.146h202.528v-47.171h-202.528zM799.864 460.995h202.528v-47.171h-202.528z"  horiz-adv-x="1024" />

    
    </font>
</defs>
</svg>
